<?xml version="1.0" encoding="UTF-8"?>
<svg enable-background="new 0 0 40.833 52.177" viewBox="0 0 40.833 52.177" xmlns="http://www.w3.org/2000/svg">
 <defs>
  <radialGradient id="c" cx="25.205" cy="25.089" r="23.359" gradientUnits="userSpaceOnUse">
   <stop stop-color="#fff200" offset="0"/>
   <stop stop-color="#006e3a" offset="1"/>
  </radialGradient>
  <radialGradient id="b" cx="15.388" cy="3.5913" r="4.2551" gradientTransform="matrix(.9995,-.0318,.0318,.9995,-.3871,1.187)" gradientUnits="userSpaceOnUse">
   <stop stop-color="#fff200" offset="0"/>
   <stop stop-color="#006e3a" offset="1"/>
  </radialGradient>
  <radialGradient id="a" cx="28.699" cy="3.9849" r="4.2551" gradientTransform="matrix(.9995,-.0318,.0318,.9995,-.3871,1.187)" gradientUnits="userSpaceOnUse">
   <stop stop-color="#fff200" offset="0"/>
   <stop stop-color="#006e3a" offset="1"/>
  </radialGradient>
  <radialGradient id="f" cx="29.272" cy="21.675" r="5.1908" gradientUnits="userSpaceOnUse">
   <stop stop-color="#565759" offset="0"/>
   <stop offset="1"/>
  </radialGradient>
  <radialGradient id="e" cx="29.162" cy="22.376" r="4.7685" gradientUnits="userSpaceOnUse">
   <stop stop-color="#565759" offset="0"/>
   <stop offset="1"/>
  </radialGradient>
  <radialGradient id="d" cx="18.135" cy="43.749" r="16.752" gradientTransform="matrix(.8488 .5286 -.5286 .8488 23.039 -4.1498)" gradientUnits="userSpaceOnUse">
   <stop stop-color="#1e3319" offset="0"/>
   <stop stop-color="#006e3a" offset="1"/>
  </radialGradient>
 </defs>
 <path d="m38.745 49.074a18.429 2.184 0 1 0 -36.858 0 18.429 2.184 0 1 0 36.858 0" fill="#bcbec0" opacity=".75"/>
 <path d="m26.199,13.206c7.243,2.291 12.493,9.066 12.493,17.067 0,9.884-8.013,17.896-17.896,17.896s-17.896-8.013-17.896-17.896c0-8.284 5.627-15.253 13.268-17.292l.102-.391c-.454-.588-1.62-3.587-1.812-3.582-2.073.066-3.807-1.561-3.873-3.634s1.561-3.806 3.633-3.873 3.808,1.561 3.873,3.635c.04,1.251-.539,2.38-1.458,3.092-.134.103 1.004,3.276 1.128,3.987l.653.317c.78-.104 1.575-.157 2.382-.157 1.093,0 2.164.098 3.202.286l.686-.286c.072-.708.98-3.961.841-4.058-.949-.653-1.585-1.734-1.625-2.974-.065-2.073 1.562-3.807 3.634-3.873s3.807,1.561 3.873,3.633-1.561,3.807-3.634,3.873c-.199.006-1.318,3.099-1.757,3.771l.183.459z" fill="#8cc63f" stroke="#006031" stroke-width=".4831"/>
 <path d="m38.054 30.352a17.338 17.338 0 1 0 -34.676 0 17.338 17.338 0 1 0 34.676 0" fill="url(#c)" stroke="#28903a" stroke-width=".4831"/>
 <path d="m17.479 5.272a3.159 3.159 0 1 0 -6.318 0 3.159 3.159 0 1 0 6.318 0" fill="url(#b)" opacity=".5"/>
 <path d="m30.796 5.242a3.159 3.159 0 1 0 -6.318 0 3.159 3.159 0 1 0 6.318 0" fill="url(#a)" opacity=".41"/>
 <path d="m15.48,20.482c-.383.529-.678,1.049-.842,1.47-.847,2.182-.487,4.625-1.18,6.844-.361,1.156-.819,1.988-.338,3.203 .558,1.408 2.097,2.04 3.086.712 .875-1.173.354-2.073-.166-3.204-1.194-2.599-.957-6.306.996-8.508 .341-.384 1.208-.826 1.344-1.295 .711-2.436-2.513.246-2.9.778z" fill="#c7e9ee" stroke="#fff" stroke-width=".4"/>
 <path d="m33.633,21.783c-.41-.696-2.695-4.229-3.733-3.154-.75.776.89,2.083 1.398,2.54 3.089,2.778 3.391,6.589 1.697,10.165-.48,1.015-.828,2.18.129,3.046 .996.9 1.896.477 2.375-.737 1.175-2.98.271-8.226-1.866-11.86z" fill="#c7e9ee" stroke="#fff" stroke-width=".4"/>
 <path d="m18.797,16.61c1.219-.734 4.141-.62 3.212,1.558-.729,1.708-3.507,1.11-4.844,1.796-1.185.608-2.13,1.619-3.104,2.506-.751-2.165 3.109-4.823 4.631-5.794l.105-.066z" fill="url(#f)"/>
 <path d="m28.194,16.183c1.272.002 3.241,1.613 3.97,2.273 1.217,1.104 2.316,2.634 2.135,4.363-.71-1.347-1.961-2.543-3.503-3.116-.977-.362-2.312-.266-3.186-.859-.913-.621-1.146-2.169.214-2.608 .115-.036.239-.053.37-.053z" fill="url(#e)"/>
 <path d="m16.56,34.205c2.069-.63 4.527-.855 5.452-.887 2.369-.082 5.051.478 7.295,1.178 .793.248 6.812,3.981 3.859,4.512-.601.108-2.042-.664-2.666-.808-1.846-.426-3.9-.961-5.789-.542-2.95.656-5.023,3.056-7.712,4.183-1.909.8-4.059.855-4.799-1.375-1.104-3.328 1.545-5.404 4.36-6.261z" fill="url(#d)" stroke="#1e3319" stroke-width=".4597"/>
 <path d="m22.083,35.437c-.746-.328-2.374-.184-3.119.075-.407.142-.449.051-.196.531 .121.229.511.527.769.572 .383.067.813-.193 1.218-.287 .416-.097 1.085-.319 1.419.083 .423.512-.116.942-.567,1.13 .447.112 1.093-.046 1.35-.448 .743.611 1.119.597 2.065.639-.462-.251-1.108-.526-1.551-1.004-.449-.485-.743-1.01-1.388-1.291z" fill="#1e3319"/>
</svg>
