<?xml version="1.0" encoding="UTF-8"?>
<svg enable-background="new 0 0 47.354 52.075" viewBox="0 0 47.354 52.075" xmlns="http://www.w3.org/2000/svg">
 <defs>
  <radialGradient id="i" cx="98.609" cy="182.26" r="22.964" gradientTransform="matrix(.9361,.3519,.3519,-.9361,-128.84,162.86)" gradientUnits="userSpaceOnUse">
   <stop stop-color="#fff200" offset="0"/>
   <stop stop-color="#006e3a" offset=".9157"/>
   <stop stop-color="#005d36" offset="1"/>
  </radialGradient>
  <radialGradient id="h" cx="85.266" cy="188.68" r="4.184" gradientTransform="matrix(.9468,.3219,.3219,-.9468,-115.96,155.51)" gradientUnits="userSpaceOnUse">
   <stop stop-color="#fff200" offset="0"/>
   <stop stop-color="#006e3a" offset="1"/>
  </radialGradient>
  <radialGradient id="g" cx="98.353" cy="188.29" r="4.184" gradientTransform="matrix(.9468,.3219,.3219,-.9468,-115.96,155.51)" gradientUnits="userSpaceOnUse">
   <stop stop-color="#fff200" offset="0"/>
   <stop stop-color="#006e3a" offset="1"/>
  </radialGradient>
  <radialGradient id="f" cx="104.83" cy="181.8" r="6.0902" gradientTransform="matrix(.9361,.3519,.3519,-.9361,-128.84,162.86)" gradientUnits="userSpaceOnUse">
   <stop stop-color="#565759" offset="0"/>
   <stop offset="1"/>
  </radialGradient>
  <radialGradient id="e" cx="-692.58" cy="653.83" r="3.0669" gradientTransform="matrix(-.9746,.2239,.2239,.9746,-792.04,-458.95)" gradientUnits="userSpaceOnUse">
   <stop stop-color="#565759" offset="0"/>
   <stop offset="1"/>
  </radialGradient>
  <radialGradient id="d" cx="94.324" cy="93.11" r="14.586" gradientTransform="matrix(.9361,.3519,.2247,-.5978,-90.886,61.925)" gradientUnits="userSpaceOnUse">
   <stop stop-color="#143557" offset="0"/>
   <stop stop-color="#12395b" offset=".1637"/>
   <stop stop-color="#034366" offset=".3894"/>
   <stop stop-color="#005478" offset=".6511"/>
   <stop stop-color="#006c94" offset=".9379"/>
   <stop stop-color="#00729a" offset="1"/>
  </radialGradient>
  <radialGradient id="c" cx="94.346" cy="174.91" r="8.4528" gradientTransform="matrix(.9362,.3516,.3516,-.9362,-128.71,162.78)" gradientUnits="userSpaceOnUse">
   <stop stop-color="#eeeac8" offset=".0112"/>
   <stop stop-color="#fff" offset=".5562"/>
   <stop stop-color="#cccecf" offset="1"/>
  </radialGradient>
  <radialGradient id="b" cx="102.1" cy="175.51" r=".5617" gradientTransform="matrix(.9362,.3516,.3516,-.9362,-128.71,162.78)" gradientUnits="userSpaceOnUse">
   <stop stop-color="#eeeac8" offset=".0112"/>
   <stop stop-color="#fff" offset=".5562"/>
   <stop stop-color="#cccecf" offset="1"/>
  </radialGradient>
  <radialGradient id="a" cx="98.559" cy="176.7" r=".4958" gradientTransform="matrix(.9362,.3516,.3516,-.9362,-128.71,162.78)" gradientUnits="userSpaceOnUse">
   <stop stop-color="#eeeac8" offset=".0112"/>
   <stop stop-color="#fff" offset=".5562"/>
   <stop stop-color="#cccecf" offset="1"/>
  </radialGradient>
 </defs>
 <path d="m44.774 49.024a20.722 2.146 0 1 0 -41.444 0 20.722 2.146 0 1 0 41.444 0" fill="#bcbec0" opacity=".75"/>
 <path d="m32.63,16.36c5.873,4.614 8.361,12.665 5.593,20.027-3.419,9.096-13.563,13.697-22.661,10.279s-13.697-13.564-10.278-22.66c2.865-7.624 10.454-12.09 18.19-11.324l.229-.325c-.214-.698-.25-3.862-.43-3.922-1.931-.656-2.963-2.753-2.307-4.684s2.753-2.962 4.684-2.307 2.965,2.754 2.308,4.685c-.396,1.166-1.319,2.003-2.412,2.34-.159.049-.209,3.362-.341,4.06l.49.518c.754.174 1.505.4 2.247.68 1.007.377 1.957.838 2.849,1.37l.729-.026c.312-.626 2.272-3.306 2.179-3.443-.647-.929-.859-2.144-.468-3.298 .657-1.931 2.754-2.964 4.686-2.307s2.963,2.753 2.307,4.683-2.754,2.964-4.684,2.308c-.186-.063-2.286,2.395-2.921,2.862l.011.484z" fill="#8cc63f" stroke="#006031" stroke-width=".4749"/>
 <path d="m38.698 30.242a17.045 17.045 0 1 0 -34.09 0 17.045 17.045 0 1 0 34.09 0" fill="url(#i)" stroke="#28903a" stroke-width=".4749"/>
 <path d="m27.547 4.95a3.105 3.105 0 1 0 -6.21 0 3.105 3.105 0 1 0 6.21 0" fill="url(#h)" opacity=".5"/>
 <path d="m39.813 9.529a3.105 3.105 0 1 0 -6.21 0 3.105 3.105 0 1 0 6.21 0" fill="url(#g)" opacity=".41"/>
 <path d="m22.951,18.133c.574.154 1.107.418 1.548.798 1.033.891 2.48,2.523 3.671.638-.326.903-1.146,1.85-2.104,1.717-1.125-.156-1.538-1.701-2.557-2.146-1.298-.566-2.947-.098-3.808,1.014-1.935,2.496 1.432,6.55 3.568,3.689 .399-.534.677-1.554-.126-1.855-.872-.326-.984.747-1.5.96-1.467.609-1.146-1.829.142-2.303 3.26-1.199 4.503,7.132-1.223,5.314-2.064-.655-4.015-3.926-2.78-5.997 .992-1.663 3.301-2.33 5.169-1.829z" fill="url(#f)"/>
 <path d="m31.212,25.065c.009-.677-.267-1.369-.825-1.778-.833-.611-2.167-.381-2.762.469-1.225,1.749 2.052,2.911 2.1,1.476 .031-.952-.646.051-1.055-.027-.635-.124-.484-1.06-.105-1.369 .635-.515 1.668-.184 1.983.537 .88,2.016-2.129,3.506-3.166,1.604-.212-.389-.488-.903-.998-.846 .638.327.446.776.602,1.318 .216.757 1.276,1.521 2.069,1.414 .923-.125 1.622-1.135 1.968-1.918 .122-.272.184-.574.189-.88z" fill="url(#e)"/>
 <path d="m16.713,29.398c.852.87 1.722,1.706 2.843,2.021 2.644.746 5.481-.93 8.242-.141 2.427.693 4.506,2.32 4.495,5.04-.011,2.757-2.011,6.956-5.141,7.028-3.706.085-4.313-3.918-6.995-5.52-2.722-1.623-5.867.797-8.388-.699-1.689-1.004-2.823-2.48-3.308-4.377-.786-3.071.875-6.067 4.294-5.877 1.677.095 2.8,1.342 3.958,2.525z" fill="url(#d)"/>
 <path d="m11.227,27.588c.585-.137 1.242-.117 1.817-.08 2.175.146 3.015,1.65 4.538,2.91 1.588,1.313 3.254,1.481 5.22,1.16 .72-.119 1.437-.235 2.168-.305 1.996-.188 3.967.045 5.583,1.375 .657.541 1.518,1.719 1.728,2.555-.687.243-1.321,1.008-1.93,1.418-.702.474-1.451.898-2.257,1.164-.243.079-.65.242-.909.139-.494-.2-.226-.342-.015-.729 .337-.615.852-1.547.85-2.266-.652-.051-5.279-1.066-7.21-1.791-1.542-.579-3.01-1.322-4.4-2.207-.871-.557-1.829-.954-2.623-1.624-.2.289-2.167,2.627-1.751,2.883-.578-.354-1.13-1.759-1.315-2.382-.236-.793-.899-1.702.126-2.104 .122-.047.249-.086.38-.116z" fill="url(#c)" stroke="#f7931d" stroke-linecap="round" stroke-width=".451"/>
 <path d="m29.147 33.81-1.127 1.12" fill="url(#b)" stroke="#f7931d" stroke-linecap="round" stroke-width=".451"/>
 <path d="m25.929,31.353-.493,1.312" fill="url(#a)" stroke="#f7931d" stroke-linecap="round" stroke-width=".451"/>
 <path d="m16.94,29.588c.853.869 1.723,1.705 2.844,2.021 2.643.746 5.48-.93 8.241-.141 2.428.692 4.506,2.319 4.495,5.04-.011,2.757-2.011,6.955-5.14,7.027-3.706.086-4.313-3.916-6.996-5.518-2.721-1.623-5.867.796-8.387-.699-1.69-1.003-2.823-2.48-3.309-4.378-.785-3.071.875-6.065 4.294-5.875 1.677.094 2.8,1.34 3.958,2.523z" fill="none" stroke="#1e3319" stroke-width=".4554"/>
</svg>
