<?xml version="1.0" encoding="UTF-8"?>
<svg enable-background="new -1.265 -1.38 42.25 55.62" viewBox="-1.265 -1.38 42.25 55.62" xmlns="http://www.w3.org/2000/svg">
 <defs>
  <radialGradient id="j" cx="6.7444" cy="14.353" r="24.557" gradientTransform="matrix(.9991 -.0434 -.0434 -.9991 18.181 39.812)" gradientUnits="userSpaceOnUse">
   <stop stop-color="#fff200" offset="0"/>
   <stop stop-color="#006e3a" offset=".9157"/>
   <stop stop-color="#005d36" offset="1"/>
  </radialGradient>
  <radialGradient id="i" cx="-16.381" cy="28.892" r="4.4725" gradientTransform="matrix(.9972 -.0752 -.0752 -.9972 31.248 31.369)" gradientUnits="userSpaceOnUse">
   <stop stop-color="#fff200" offset="0"/>
   <stop stop-color="#006e3a" offset="1"/>
  </radialGradient>
  <radialGradient id="h" cx="-2.387" cy="28.478" r="4.4728" gradientTransform="matrix(.9972 -.0752 -.0752 -.9972 31.248 31.369)" gradientUnits="userSpaceOnUse">
   <stop stop-color="#fff200" offset="0"/>
   <stop stop-color="#006e3a" offset="1"/>
  </radialGradient>
  <radialGradient id="g" cx="-22.7" cy="97.499" r="12.333" gradientTransform="matrix(1.1607 .0111 -.0111 -1.2151 47.069 146.42)" gradientUnits="userSpaceOnUse">
   <stop stop-color="#971b1e" offset="0"/>
   <stop stop-color="#923020" offset=".1147"/>
   <stop stop-color="#835125" offset=".3539"/>
   <stop stop-color="#64732f" offset=".6936"/>
   <stop stop-color="#28903a" offset="1"/>
  </radialGradient>
  <radialGradient id="f" cx="1.4871" cy="-240.29" r="12.503" gradientTransform="matrix(.9991 -.0434 -.0277 -.638 11.583 -111.93)" gradientUnits="userSpaceOnUse">
   <stop stop-color="#143557" offset="0"/>
   <stop stop-color="#12395b" offset=".1637"/>
   <stop stop-color="#034366" offset=".3894"/>
   <stop stop-color="#005478" offset=".6511"/>
   <stop stop-color="#006c94" offset=".9379"/>
   <stop stop-color="#00729a" offset="1"/>
  </radialGradient>
  <radialGradient id="e" cx="1.2263" cy="6.3857" r="7.9722" gradientTransform="matrix(.999 -.0437 -.0437 -.999 18.277 39.69)" gradientUnits="userSpaceOnUse">
   <stop stop-color="#eeeac8" offset=".0112"/>
   <stop stop-color="#fff" offset=".5562"/>
   <stop stop-color="#cccecf" offset="1"/>
  </radialGradient>
  <radialGradient id="d" cx="10.413" cy="7.1802" r=".6019" gradientTransform="matrix(.999 -.0437 -.0437 -.999 18.277 39.69)" gradientUnits="userSpaceOnUse">
   <stop stop-color="#eeeac8" offset=".0112"/>
   <stop stop-color="#fff" offset=".5562"/>
   <stop stop-color="#cccecf" offset="1"/>
  </radialGradient>
  <radialGradient id="c" cx="6.6243" cy="8.4551" r=".5293" gradientTransform="matrix(.999 -.0437 -.0437 -.999 18.277 39.69)" gradientUnits="userSpaceOnUse">
   <stop stop-color="#eeeac8" offset=".0112"/>
   <stop stop-color="#fff" offset=".5562"/>
   <stop stop-color="#cccecf" offset="1"/>
  </radialGradient>
  <radialGradient id="b" cx="72.701" cy="-351.56" r="4.5269" gradientTransform="matrix(.991 .1336 .0617 -.4579 -28.424 -140.43)" gradientUnits="userSpaceOnUse">
   <stop stop-color="#565759" offset="0"/>
   <stop offset="1"/>
  </radialGradient>
  <radialGradient id="a" cx="22.362" cy="25.852" r="4.995" gradientTransform="matrix(1,0,0,-1,.0376,52.085)" gradientUnits="userSpaceOnUse">
   <stop stop-color="#565759" offset="0"/>
   <stop offset="1"/>
  </radialGradient>
 </defs>
 <path d="m35.98 50.944a15.703 2.296 0 1 0 -31.406 0 15.703 2.296 0 1 0 31.406 0" fill="#bcbec0" opacity=".75"/>
 <path d="m24.797,12.65c7.711,2.075 13.535,8.952 13.899,17.354 .451,10.381-7.599,19.162-17.979,19.614s-19.161-7.597-19.612-17.978c-.379-8.702 5.213-16.278 13.145-18.768l.089-.416c-.503-.597-1.865-3.694-2.066-3.678-2.174.164-4.068-1.465-4.232-3.64-.165-2.174 1.465-4.068 3.639-4.233 2.174-.164 4.07,1.466 4.233,3.641 .1,1.313-.457,2.524-1.391,3.313-.136.114 1.203,3.395 1.367,4.136l.7.304c.813-.145 1.646-.237 2.496-.274 1.146-.05 2.275.004 3.375.154l.708-.331c.043-.747.849-4.206.698-4.3-1.026-.644-1.745-1.749-1.843-3.049-.163-2.175 1.467-4.07 3.642-4.233s4.068,1.465 4.231,3.639c.165,2.175-1.465,4.07-3.639,4.234-.208.016-1.244,3.314-1.673,4.041l.213.47z" fill="#8cc63f" stroke="#006031" stroke-width=".5079"/>
 <path d="m38.048 30.909a18.227 18.227 0 1 0 -36.454 0 18.227 18.227 0 1 0 36.454 0" fill="url(#j)" stroke="#28903a" stroke-width=".5079"/>
 <path d="m15.278 4.86a3.32 3.32 0 1 0 -6.64 0 3.32 3.32 0 1 0 6.64 0" fill="url(#i)" opacity=".5"/>
 <path d="m29.265 4.22a3.321 3.321 0 1 0 -6.642 0 3.321 3.321 0 1 0 6.642 0" fill="url(#h)" opacity=".41"/>
 <path d="m36.24 24.435c1.234 6.287-5.195 12.843-14.362 14.646s-17.606-1.835-18.84-8.121c-1.235-6.286 5.196-12.843 14.365-14.645s17.602 1.835 18.837 8.12z" fill="url(#g)" opacity=".55"/>
 <path d="m14.546,31.313c.892-.064 1.757-.059 2.527-.013 1.739.103 3.263-.334 4.917-.784 1.369-.375 2.919-1.201 4.35-1.096 2.988.221 3.47,3.875 3.7,6.172 .165,1.633.639,5.399-1.376,6.129-2.078.754-5.021-2.438-7.132-2.725-3.622-.492-7.209,5.49-10.637,2.826-2.143-1.667-2.777-6.059-1.621-8.42 .863-1.758 3.486-1.962 5.272-2.089z" fill="url(#f)"/>
 <path d="m30.058,39.854c-.981-.453-3.144-.299-4.137.026-.542.179-.596.056-.271.698 .155.307.664.71 1.005.775 .507.099 1.082-.236 1.621-.352 .554-.119 1.447-.398 1.879.143 .551.688-.175,1.246-.777,1.485 .59.158 1.449-.037 1.802-.562 .969.828 1.468.818 2.721.896-.605-.343-1.456-.723-2.031-1.366-.587-.653-.964-1.354-1.812-1.743z" fill="#1e3319"/>
 <path d="m15.414,31.224c1.456-.094 2.858.588 4.331.414 1.035-.121 2.292-.65 3.287-.99 1.779-.606 4.011-1.834 5.594-.154 1.168,1.24 2.129,3.874.693,5.134-.206.181-.537.511-.836.519-.568.011-.364-.242-.319-.709 .072-.746.189-1.879-.114-2.586-.664.225-5.641,1.166-7.844,1.262-1.76.078-3.516-.038-5.253-.325-1.092-.181-2.2-.171-3.263-.498-.074.368-1.027,3.489-.516,3.569-.268-.041-2.664-1.393-2.654-1.52 .246-3.265 4.418-3.958 6.894-4.116z" fill="url(#e)" stroke="#f7931d" stroke-linecap="round" stroke-width=".4822"/>
 <path d="m28.688,31.274-.639,1.577" fill="url(#d)" stroke="#f7931d" stroke-linecap="round" stroke-width=".4822"/>
 <path d="m24.492,30.208 .066,1.497" fill="url(#c)" stroke="#f7931d" stroke-linecap="round" stroke-width=".4822"/>
 <path d="m14.84,31.304c1.99-.054 3.986.014 5.966-.223 2.002-.24 3.904-1.602 5.825-1.605 2.621-.004 3.121,2.932 3.247,5.006 .106,1.754.629,5.334-.356,6.862-1.244,1.931-5.767-1.995-7.688-2.256-3.502-.476-6.064,3.865-9.368,3.569-2.066-.186-3.6-3.815-3.964-5.543-.792-3.768 2.078-5.604 5.422-5.776 .306-.015.611-.025.916-.034z" fill="none" stroke="#1e3319" stroke-width=".487"/>
 <path d="m13.17,26.567c.448-.651.854-1.323 1.442-1.629 1-.52 2.007.346 1.744,1.334-.354,1.336-2.977,2.76-4.244,2.973-.771.129-2.98.404-3.144-.667 .973-.573 1.986-.128 2.976-.714 .504-.299.877-.791 1.226-1.297z" fill="url(#b)"/>
 <path d="m26.996,23.302-.088-.058c-1.228-.746-5.313-4.256-6.592-2.246-.956,1.504.386,4.385 1.767,5.25 1.484.931 2.484-.043 4.02.01 1.725.06 2.343-1.937.893-2.956z" fill="url(#a)"/>
 <path d="m3.588,14.037c-.985.526-2.545,2.207-2.372,3.417 .174,1.219 1.932,1.654 2.766,2.362 1.912,1.624 1.079,6.228 4.433,5.427 1.868-.446 3.542-2.17 5.025-3.322 2.224-1.725 4.776-2.899 7.492-3.646 1.903-.523 3.956-.674 5.88-.295 1.258.248 2.798,1.137 4.11.794 2.494-.652 2.368-4.534 1.35-6.314-.978-1.713-3.692-2.086-5.456-2.759-1.184-.451-2.244-.952-3.249-1.708-.775-.583-.992-.955-1.973-1.051-1.352-.133-2.85.273-4.169.522-2.236.423-4.504.923-6.721,1.441-3.059.715-6.169,1.422-9.191,2.248-1.413.387-1.403,1.19-1.21,2.651 .049.374.107,1.213.49,1.451 .66.412.922-.336 1.614-.432 .009-.001.343-.105.353-.108-.252.193-.345.417-.576.61 2.4-.042 4.752,2.545 5.707,4.484 .305-1.374 2.986-1.479 4.071-1.728 3.201-.732 6.335-1.505 9.611-1.849 1.939-.204 4.003-.184 5.933.039 .897.104 1.876.419 2.497-.385 .401-.521.602-2.249.131-2.779-.89-1.001-4.229.087-5.396.302-2.034.373-4.012.953-6.03,1.387-1.209.26-3.279-.026-4.212.555" fill="#d6f0fc"/>
 <path d="m8.344,19.608c-.112.199-.196.425-.247.684-.21-.774-.914-1.173-1.39-1.771-.577-.726-.892-1.701-1.668-2.258-.394-.281-1.49-.899-1.981-.923-.45-.022-1.53.432-1.361,1.082 .123.473 1.221.418 1.606.664 .59.376 1.079.931 1.573,1.419 1.375,1.359 1.533,3.36 2.752,4.726 .479-1.479 1.294-2.67 2.645-3.413 2.388-1.311 6.241-2.055 8.959-2.373 1.522-.177 3.103-.067 4.632-.111 1.747-.048 3.921-.708 5.611-.509 .485.058.773.402 1.294.345 .098-1.268.852-3.808-.879-4.401 .04.576.137,1.143.111,1.754-.002-1.503-4.442-.592-5.252-.457-3.497.581-6.924,1.158-10.485,1.153 4.999.188 9.756-2.851 14.687-2.503 1.229.086 1.473,1.037 1.287,2.234-.431,2.789-4.577,1.208-6.376,1.189-4.236-.043-8.132,1.044-12.251,1.869-1.204.242-2.653.504-3.267,1.6z" fill="#c1e8fb"/>
 <path d="m3.64,14.025c-.985.525-2.545,2.207-2.372,3.417 .175,1.219 1.934,1.655 2.767,2.362 1.911,1.624 1.079,6.228 4.432,5.427 1.868-.446 3.542-2.17 5.025-3.321 2.224-1.726 4.775-2.899 7.491-3.646 1.903-.523 3.956-.673 5.88-.295 1.259.247 2.799,1.137 4.109.794 2.494-.652 2.368-4.534 1.352-6.314-.979-1.713-3.693-2.086-5.456-2.759-1.184-.451-2.244-.953-3.249-1.708-.775-.583-.993-.955-1.974-1.051-1.352-.133-2.85.273-4.169.523-2.235.422-4.504.922-6.721,1.441-3.059.715-6.169,1.421-9.191,2.248-1.413.387-1.401,1.191-1.209,2.651 .049.374.107,1.213.49,1.452 .661.412.922-.337 1.615-.432 .009-.001.343-.105.353-.108-.253.193-.346.417-.576.609 2.4-.041 4.752,2.546 5.707,4.485 .307-1.374 2.986-1.479 4.071-1.728 3.201-.732 6.334-1.504 9.611-1.849 1.939-.204 4.003-.184 5.934.039 .898.104 1.876.419 2.497-.385 .402-.521.603-2.249.131-2.778-.889-1.001-4.228.087-5.396.302-2.035.373-4.013.952-6.031,1.386-1.209.26-3.28-.026-4.213.555" fill="none" stroke="#71d0f6" stroke-width=".5256"/>
 <path d="m8.44,10.357c-2.062.538-4.468.463-6.385,1.388-.25.121-1.188,1.242-1.079,1.221 .26-.051.622.088.883.04-.031.175.075.443.041.617 2.321.091 4.259,1.633 5.531,3.521 .055-.141.2-.295.257-.439 .139.228.5.424.631.636 .946-.845 1.665-1.425 2.854-2.131-1.649.163-3.596-.395-4.965-1.304-.25-.166-1.405-.857-1.422-1.179-.04-.74 2.01-1.251 2.483-1.439 4.31-1.713 10.5-4.75 15.077-2.651-1.243-1.111-2.894-1.156-4.423-.781-3.179.777-6.319,1.675-9.483,2.501z" fill="#fff"/>
</svg>
