<?xml version="1.0" encoding="utf-8"?>
<svg xmlns="http://www.w3.org/2000/svg" xmlns:xlink="http://www.w3.org/1999/xlink" version= "1.1" width="1920px" height="1300px" viewBox="-600 64 1920 1300">
<g id="layer1">
<g style="fill:rgb(0,73,84); fill-opacity:1.0; stroke-linejoin: miter">
<path d="M-600.00104,61.973434C-600.5382,61.973434,-601.0534,62.18683,-601.4332,62.566673C-601.81305,62.946518,-602.0265,63.461693,-602.0265,63.998875L-602.0255,1363.9998C-602.0255,1365.1184,-601.11865,1366.0251,-600.00006,1366.0251L1320.0007,1366.0261C1320.538,1366.0261,1321.0531,1365.8129,1321.433,1365.433C1321.8129,1365.0531,1322.0261,1364.538,1322.0261,1364.0007L1322.0251,63.999874C1322.0251,62.881256,1321.1184,61.974434,1319.9998,61.974434L-600.00104,61.973434 Z"/>
</g>
<g style="fill:rgb(240,86,33); fill-opacity:1.0; stroke-linejoin: miter">
<path d="M470.57272,465.1988Q327.9899,471.67172,235.17055,568.30664Q142.35109,664.94165,141.62404,807.6697Q142.69353,854.1521,155.41316,896.6731L170.63737,937.81177Q188.56999,977.76404,215.7047,1011.4032Q300.37277,1115.4559,438.4791,1134.4713Q461.45883,1136.487,483.43356,1136.0446Q599.6993,1133.703,687.82776,1062.5372Q791.8804,977.8689,810.89575,839.7628L813.043,794.1474Q806.5699,651.56433,709.93524,558.74493Q613.30035,465.9256,470.57272,465.1988 Z"/>
</g>
<g>
<g style="fill:rgb(165,56,19); fill-opacity:0.27058825; stroke-linejoin: miter">
<path d="M413.9744,795.2999L413.47403,804.90814Q410.2809,820.58136,408.52847,823.0483Q406.1838,828.6778,402.9108,833.75073Q396.365,843.89685,386.10614,851.81714Q380.94067,855.7749,375.34305,858.7203Q360.97052,865.1978,357.57736,865.27844Q345.08517,868.13196,330.86417,866.93616Q324.07208,866.04205,317.86642,864.2637Q314.3971,863.9272,300.5694,856.939Q289.9179,850.72974,281.61246,840.98346Q263.03503,817.3764,265.62848,791.49817Q266.74045,778.6163,271.87463,767.65466Q274.44174,762.17395,278.0144,757.17316Q279.23022,754.3154,290.87894,743.3657Q310.2751,727.15955,338.33685,725.9644Q352.38022,726.0409,364.398,729.9479Q370.40686,731.9014,375.9092,734.81256Q389.22217,742.9284,391.27713,745.7008Q396.01996,750.04846,399.77567,754.91315Q408.30142,767.52734,408.822,770.6706Q413.37234,781.95105,413.9744,795.2999"/>
</g>
<g style="fill:rgb(165,56,19); fill-opacity:0.27058825; stroke-linejoin: miter">
<path d="M404.00186,798.827L403.35153,807.08545Q398.69235,832.5137,378.72302,846.8343Q370.80368,853.0473,356.87485,857.1896Q347.78656,859.631,333.527,858.8414Q327.77927,858.4324,318.93414,855.8308Q318.10364,855.8183,311.8382,852.8447Q300.12637,847.4958,292.2145,838.78516Q289.0457,835.60156,285.82504,830.4923Q283.77,828.2147,278.90912,816.3908Q275.65216,806.881,276.00488,797.0807Q277.0999,771.6848,295.12598,755.0503Q313.8241,737.5625,340.4858,737.42017Q365.4908,737.85944,384.37003,754.2967Q393.40714,762.3887,399.63358,775.8913Q403.58585,785.7756,404.00186,798.827"/>
</g>
</g>
<g>
<g style="fill:rgb(165,56,19); fill-opacity:0.27058825; stroke-linejoin: miter">
<path d="M612.5388,1016.37604L612.03845,1025.9841Q608.8454,1041.6575,607.093,1044.1245Q604.7482,1049.7538,601.4752,1054.8268Q594.9294,1064.973,584.67053,1072.8932Q579.5051,1076.851,573.90753,1079.7963Q559.535,1086.2738,556.1418,1086.3544Q543.64954,1089.2079,529.42865,1088.0123Q522.6365,1087.1182,516.43085,1085.3398Q512.96155,1085.0032,499.13394,1078.0151Q488.4824,1071.8058,480.17685,1062.0596Q461.59946,1038.4525,464.1929,1012.5742Q465.30484,999.6925,470.43906,988.7307Q473.00613,983.24994,476.57877,978.24915Q477.7947,975.39166,489.4434,964.4418Q508.8395,948.2356,536.90125,947.04047Q550.9446,947.1168,562.96234,951.0239Q568.9711,952.9774,574.47363,955.8887Q587.7867,964.0046,589.8417,966.777Q594.5845,971.12463,598.3401,975.9893Q606.86584,988.6035,607.3864,991.74677Q611.93677,1003.0273,612.5388,1016.37604"/>
</g>
<g style="fill:rgb(165,56,19); fill-opacity:0.27058825; stroke-linejoin: miter">
<path d="M602.5663,1019.90314L601.916,1028.1614Q597.25684,1053.5897,577.2875,1067.9103Q569.36816,1074.1234,555.43933,1078.2656Q546.35095,1080.707,532.0915,1079.9176Q526.34375,1079.5085,517.49866,1076.907Q516.66815,1076.8944,510.40274,1073.9209Q498.6909,1068.572,490.7789,1059.861Q487.61008,1056.6776,484.38943,1051.5684Q482.33438,1049.2906,477.47354,1037.4668Q474.21658,1027.957,474.5693,1018.15686Q475.66428,992.7608,493.69034,976.1264Q512.3885,958.63873,539.0501,958.49615Q564.0551,958.93555,582.93445,975.37286Q591.9715,983.4647,598.198,996.9675Q602.1503,1006.85175,602.5663,1019.90314"/>
</g>
</g>
<g>
<g style="fill:rgb(165,56,19); fill-opacity:0.27058825; stroke-linejoin: miter">
<path d="M796.1589,711.0737L795.6584,720.68195Q792.4654,736.35516,790.7129,738.82214Q788.3681,744.45154,785.0951,749.5245Q778.5494,759.6706,768.2905,767.5909Q763.1252,771.5486,757.5275,774.49396Q743.155,780.9715,739.76184,781.0521Q727.2696,783.9057,713.0486,782.7099Q706.2565,781.8158,700.0509,780.0374Q696.5816,779.7008,682.75397,772.7127Q672.10236,766.50336,663.79694,756.75726Q645.21954,733.1502,647.8129,707.27185Q648.92487,694.39014,654.059,683.4285Q656.62604,677.9477,660.19867,672.94684Q661.41455,670.08936,673.0633,659.1395Q692.4594,642.9334,720.5212,641.7383Q734.5646,641.81476,746.58234,645.72186Q752.5911,647.67523,758.09357,650.5865Q771.40656,658.70233,773.4615,661.4747Q778.2043,665.8223,781.95996,670.687Q790.4858,683.3012,791.0064,686.4445Q795.5566,697.7249,796.1589,711.0737"/>
</g>
<g style="fill:rgb(165,56,19); fill-opacity:0.27058825; stroke-linejoin: miter">
<path d="M786.1863,714.6008L785.536,722.85925Q780.8767,748.2874,760.90753,762.60803Q752.98816,768.8211,739.0594,772.9633Q729.97107,775.4047,715.7115,774.6151Q709.96375,774.20605,701.1187,771.60455Q700.28815,771.59204,694.02277,768.61847Q682.311,763.2696,674.399,754.5588Q671.23016,751.37524,668.0095,746.26605Q665.95447,743.9884,661.0936,732.16455Q657.8367,722.6547,658.18933,712.8544Q659.2843,687.4586,677.3103,670.82416Q696.0085,653.3364,722.67017,653.19403Q747.6752,653.63336,766.5543,670.07056Q775.5915,678.1625,781.8179,691.66516Q785.77014,701.5494,786.1863,714.6008"/>
</g>
</g>
<g>
<g style="fill:rgb(165,56,19); fill-opacity:0.27058825; stroke-linejoin: miter">
<path d="M566.8914,559.0237L566.39105,568.63184Q563.1981,584.3051,561.4456,586.77216Q559.1008,592.40155,555.8279,597.4745Q549.28217,607.62054,539.0234,615.54095Q533.8579,619.49866,528.2602,622.444Q513.88776,628.9215,510.4946,629.0021Q498.00235,631.8558,483.78128,630.6599Q476.98923,629.76575,470.7836,627.98737Q467.3143,627.65076,453.48672,620.6627Q442.8351,614.4534,434.5297,604.7073Q415.9523,581.1002,418.5457,555.22186Q419.65762,542.34015,424.79178,531.37854Q427.35892,525.89777,430.9316,520.8969Q432.14743,518.03937,443.79617,507.0896Q463.1923,490.88336,491.254,489.68832Q505.2974,489.76477,517.3151,493.6718Q523.324,495.62527,528.8263,498.53653Q542.1393,506.65234,544.1942,509.4247Q548.937,513.77234,552.6926,518.637Q561.21844,531.2513,561.7391,534.39453Q566.28937,545.6749,566.8914,559.0237"/>
</g>
<g style="fill:rgb(165,56,19); fill-opacity:0.27058825; stroke-linejoin: miter">
<path d="M556.919,562.55084L556.26874,570.80927Q551.60944,596.2374,531.64014,610.55804Q523.7208,616.7711,509.79202,620.9133Q500.70377,623.35474,486.44424,622.5652Q480.6965,622.1561,471.8514,619.5545Q471.0209,619.542,464.7554,616.5685Q453.04373,611.2196,445.13168,602.5088Q441.96286,599.32526,438.74228,594.21606Q436.68723,591.9384,431.8264,580.11456Q428.56937,570.6047,428.92215,560.8044Q430.01712,535.4086,448.04324,518.77423Q466.7413,501.2864,493.40298,501.144Q518.4079,501.5834,537.2871,518.02057Q546.3242,526.1125,552.5506,539.61523Q556.503,549.49945,556.919,562.55084"/>
</g>
</g>
<g style="fill:rgb(165,56,19); fill-opacity:0.40392157; stroke-linejoin: miter">
<path d="M720.0019,568.8115Q603.7772,624.5313,598.74695,625.48456Q519.94434,660.0564,462.59567,664.9861Q455.65042,665.4727,448.77908,665.6111Q429.37833,666.0018,410.56686,663.6164Q399.22574,662.285,387.49054,660.24005L343.0357,652.09015Q324.98096,649.2791,314.51382,648.69904Q308.4862,647.8055,300.0182,647.9761Q284.72998,648.284,261.4872,652.0603Q232.83162,656.7229,184.79173,678.0342Q171.56712,684.3076,160.42781,689.99744Q157.91478,697.3853,155.73589,704.9415Q200.90987,688.109,207.80742,686.4989Q236.87816,677.0096,264.42404,673.0994Q273.0536,671.6364,285.2023,671.3918Q293.7423,671.2198,304.0213,671.64984Q312.8244,672.2734,324.59457,674.113Q399.238,688.3655,407.10153,688.4583Q427.87143,691.1073,449.32547,690.67523Q456.46725,690.5313,463.68478,690.046Q527.519,684.48083,609.746,648.04663Q682.272,616.1663,735.4156,585.945Q728.0635,577.18665,720.0097,568.8114 Z"/>
</g>
<g style="fill:rgb(165,56,19); fill-opacity:0.40392157; stroke-linejoin: miter">
<path d="M812.8348,790.1524Q689.0653,854.0325,683.27563,855.31195Q586.5249,901.2875,515.3545,909.5752Q506.73117,910.4416,498.1868,910.8721Q493.10947,911.12775,488.06003,911.22943Q469.11734,911.6109,450.56674,909.82574Q436.40555,908.595,421.7274,906.49133L366.10864,898.0206Q343.5386,895.2013,330.4932,894.87274Q324.72842,894.1952,317.209,894.3466Q314.90207,894.39307,312.42993,894.51764Q293.4192,895.4749,264.64145,901.04675Q229.1621,907.92444,170.18925,936.2452Q170.13298,936.274,170.07674,936.30286L170.63737,937.81177Q174.22298,945.8002,178.1765,953.53625Q194.79335,947.0681,199.1443,945.91296Q234.95897,933.0139,269.08582,927.114Q279.76816,924.9697,294.87497,924.209Q299.55847,923.9731,304.66724,923.87006Q311.14203,923.7397,318.29996,923.8229Q329.27658,924.2681,343.99063,926.11487Q437.40042,941.0447,447.18802,940.86475Q467.69058,942.8531,488.65244,942.43097Q494.21408,942.3189,499.808,942.0373Q508.68893,941.59,517.65106,940.71515Q596.867,931.3929,697.80835,882.9711Q760.7094,853.0256,811.60693,824.4732L811.6098,824.4737L811.6098,824.4745L811.60693,824.474L811.6154,824.4746L811.6155,824.4754L811.6155,824.4746L811.6155,824.4754L811.6156,824.4746L813.043,794.1474Q812.9522,792.14496,812.84344,790.1522 Z"/>
</g>
<g style="fill:rgb(165,56,19); fill-opacity:0.40392157; stroke-linejoin: miter">
<path d="M697.86884,1054.063Q696.5481,1054.6132,696.06134,1054.7207Q599.31067,1100.6964,528.14026,1108.9841Q519.51697,1109.8506,510.9727,1110.281Q505.89523,1110.5366,500.84573,1110.6384Q481.90305,1111.0199,463.35245,1109.2345Q449.1913,1108.0039,434.51315,1105.9003L378.89435,1097.4296Q356.32428,1094.6102,343.2788,1094.2816Q337.51407,1093.6041,329.99472,1093.7556Q327.68774,1093.8021,325.21558,1093.9266Q320.28772,1094.1747,314.70355,1094.7329Q370.0296,1125.0466,438.4791,1134.4713Q461.45883,1136.487,483.43356,1136.0446Q599.6993,1133.703,687.82776,1062.5372Q692.9553,1058.365,697.8763,1054.0629 Z"/>
</g>
<g style="fill:rgb(165,56,19); fill-opacity:0.40392157; stroke-linejoin: miter">
<path d="M470.57272,465.1988Q418.85306,467.54675,373.68118,481.75784Q395.65732,485.60135,399.72855,485.64938Q420.49838,488.29834,441.95236,487.86627Q449.09427,487.72244,456.31186,487.23718Q492.91513,484.04602,535.56604,470.7051Q504.36404,465.37085,470.57272,465.1988 Z"/>
</g>
<g style="fill:rgb(255,206,84); fill-opacity:1.0; stroke-linejoin: miter">
<path d="M28.22897,683.2719C28.578518,679.62506,29.059021,674.97894,29.68579,670.1322C32.033325,651.8497,34.243458,646.00507,35.35926,644.1464C37.026093,641.35297,39.410294,639.1543,42.25246,637.77936L43.23534,637.30286L51.89584,622.63635L69.8367,635.2008L61.62758,648.2748L61.668594,649.3945C61.80616,652.54816,60.991135,655.68994,59.325645,658.4886C58.20846,660.3415,54.111084,665.0612,39.11629,675.7696C35.136253,678.60974,31.26672,681.2419,28.22897,683.2719 Z"/>
</g>
<g style="fill:rgb(246,187,66); fill-opacity:1.0; stroke-linejoin: miter">
<path d="M50.777546,617.4478L40.683178,634.53296C37.344364,636.1475,34.369873,638.77856,32.2639,642.29944C26.88289,651.2939,23.984222,690.3601,23.984222,690.3601C23.984222,690.3601,57.03154,669.3385,62.421276,660.3357C64.51861,656.82263,65.43426,652.95166,65.2765,649.241L74.7093,634.21594L50.777546,617.4478 Z M59.170223,645.40405L57.978638,647.3088L58.072655,649.5504C58.17473,651.998,57.536156,654.4514,56.22909,656.6356C55.798615,657.3552,52.842125,661.5317,37.043076,672.81885C35.533043,673.8918,34.048866,674.93634,32.616203,675.92413C32.814106,674.1933,33.027584,672.39307,33.266563,670.56366C35.73886,651.30054,38.015762,646.72107,38.45619,645.9991C39.761997,643.8096,41.623066,642.0915,43.82349,641.031L45.789112,640.0786L46.899914,638.2001L53.016205,627.8301L64.953896,636.1886L59.170223,645.40405 Z"/>
</g>
<g style="fill:rgb(255,0,10); fill-opacity:1.0; stroke-linejoin: miter">
<path d="M82.48898,645.2689C84.21925,643.8569,85.935135,642.3878,87.62935,640.87573L120.385086,602.32367C121.63449,600.38806,122.85421,598.4221,124.04846,596.44086C124.73005,595.2869,125.41165,594.1329,126.07032,592.9736C130.48892,611.2031,127.15358,633.20013,115.30166,653.0197C111.349266,659.61945,106.74588,665.4984,101.68212,670.5869C101.64747,670.6231,101.44572,670.8214,101.44572,670.8214C100.30184,671.8732,98.557045,672.09845,97.15659,671.2608C96.69255,670.97876,96.31583,670.6097,96.03534,670.18884C96.03534,670.18884,95.820435,669.8554,95.74951,669.70386L82.03423,645.6341C82.19012,645.513,82.33374,645.3899,82.48898,645.2689 Z"/>
</g>
<g style="fill:rgb(255,0,10); fill-opacity:1.0; stroke-linejoin: miter">
<path d="M62.432873,554.8916C61.724052,556.0249,61.029987,557.17126,60.33672,558.3224C59.153927,560.3064,57.9985,562.3106,56.88923,564.32556C50.144173,567.06915,38.4011,611.42633,38.4011,611.42633C37.87498,613.63293,37.39164,615.83453,36.96168,618.0332C36.921917,618.22363,36.892555,618.411,36.853004,618.6012L9.153181,617.90027C8.991256,617.90796,8.590806,617.87756,8.590806,617.87756C8.087391,617.82935,7.5888276,617.67126,7.114893,617.39166C5.714235,616.5538,5.094274,614.9137,5.4791903,613.4029C5.4791903,613.4029,5.5544157,613.1386,5.5749846,613.08966C7.658777,606.2224,10.657087,599.3877,14.608457,592.78296C26.469803,572.9553,44.27411,559.6149,62.432873,554.8916 Z"/>
</g>
<g style="fill:rgb(255,255,255); fill-opacity:1.0; stroke-linejoin: miter">
<path d="M59.03703,556.01825C44.17846,580.8622,35.565468,607.1388,33.109394,631.1148C32.99828,632.45276,33.618847,633.79205,34.8512,634.5254L68.944824,654.9293C70.175865,655.65704,71.65079,655.5758,72.77737,654.845C92.74665,641.34155,111.82249,621.3326,126.68081,596.48865C149.77556,557.8973,157.7345,516.3367,151.052,484.28137C150.85553,483.3261,150.25476,482.36908,149.35378,481.82574C148.4426,481.28534,147.32057,481.20728,146.37593,481.48834C114.97165,490.7588,82.12166,517.42926,59.03703,556.01825 Z"/>
</g>
<g style="fill:rgb(67,74,84); fill-opacity:1.0; stroke-linejoin: miter">
<path d="M105.80755,574.47455C102.06991,575.4138,98.19174,574.8386,94.8891,572.8629C91.58532,570.8825,89.24425,567.7369,88.30449,563.9993C87.36497,560.2615,87.9402,556.3828,89.914536,553.0754C91.88986,549.7733,95.04566,547.4293,98.77312,546.49255C102.51109,545.5526,106.38907,546.1282,109.701965,548.10095C116.52705,552.1879,118.758606,561.0651,114.67646,567.88873C112.69065,571.19385,109.545296,573.5348,105.81791,574.4717C105.80755,574.47455,105.80755,574.47455,105.80755,574.47455 Z"/>
</g>
<g style="fill:rgb(67,74,84); fill-opacity:1.0; stroke-linejoin: miter">
<path d="M83.59144,611.6111C79.85368,612.55084,75.97659,611.9808,72.67302,609.99976C69.3701,608.0247,67.02779,604.8737,66.08936,601.1409C65.149864,597.4033,65.72397,593.5198,67.69842,590.2121C69.673965,586.90967,72.81918,584.5687,76.557144,583.629C80.29504,582.68964,84.17329,583.26495,87.48621,585.2378C94.31089,589.32477,96.54253,598.20233,92.460754,605.0253C90.475876,608.3359,87.3296,610.6714,83.59144,611.6111L83.5915,611.61163 Z"/>
</g>
<g style="fill:rgb(64,190,174); fill-opacity:1.0; stroke-linejoin: miter">
<path d="M111.55594,545.0092C107.41944,542.5394,102.56624,541.8215,97.894356,542.996C93.2322,544.1681,89.29576,547.09576,86.81914,551.2282C84.353,555.3581,83.62979,560.2126,84.80314,564.8794C85.97767,569.55164,88.90876,573.4823,93.03642,575.9597C97.17251,578.4298,102.02482,579.14233,106.68664,577.9703C111.35882,576.79614,115.29665,573.8739,117.77328,569.7412C122.877716,561.20905,120.088684,550.1137,111.55594,545.0092 Z M111.57971,566.0362C110.04097,568.6009,107.61918,570.3014,104.928635,570.97797C102.24866,571.6517,99.29999,571.3012,96.742004,569.7662C91.614555,566.6991,89.94444,560.0552,93.01163,554.928C94.54025,552.36597,96.97356,550.6678,99.653435,549.9943C102.34411,549.31775,105.28097,549.6653,107.8496,551.198C112.97644,554.26544,114.64669,560.90906,111.57971,566.0362 Z"/>
</g>
<g style="fill:rgb(64,190,174); fill-opacity:1.0; stroke-linejoin: miter">
<path d="M75.67952,580.1382C71.00717,581.3129,67.07983,584.23224,64.602776,588.3651C62.12623,592.4972,61.41315,597.34955,62.58781,602.02167C63.76131,606.68896,66.68207,610.6219,70.82005,613.097C74.956604,615.5672,79.7996,616.28766,84.47173,615.11304C89.14444,613.9384,93.08123,611.01074,95.55793,606.8782C100.6621,598.346,97.87274,587.2503,89.34048,582.1462C85.20384,579.67615,80.35196,578.9634,75.67952,580.1382 Z M89.36406,603.17303C87.826614,605.7429,85.40303,607.4383,82.712555,608.1145C80.03244,608.78845,77.08505,608.44324,74.52576,606.90326C69.39816,603.8358,67.728096,597.1921,70.795494,592.0649C72.32396,589.50256,74.75751,587.80444,77.437485,587.13104C80.128006,586.45465,83.06495,586.80225,85.63386,588.3346C90.761,591.4015,92.43099,598.04535,89.36406,603.17303 Z"/>
</g>
<g style="fill:rgb(255,0,10); fill-opacity:1.0; stroke-linejoin: miter">
<path d="M151.34053,530.9851L105.09469,503.3241C118.502686,492.9937,132.58496,485.56113,146.37593,481.48834C147.32057,481.20728,148.4426,481.28534,149.35378,481.82574C150.25476,482.36908,150.85553,483.3261,151.052,484.28137C153.99274,498.3678,154.09705,514.2873,151.34053,530.9851 Z"/>
</g>
<g style="fill:rgb(17,123,189); fill-opacity:1.0; stroke-linejoin: miter">
<path d="M194.23802,1289.2665L194.23814,1289.2666Q194.23651,1289.2666,194.2578,1289.2668Q194.27908,1289.267,194.35379,1289.2671Q194.46579,1289.2673,194.51262,1289.2675Q194.58101,1289.2675,194.6284,1289.2676L194.67151,1289.2677Q194.70984,1289.2677,194.73291,1289.2678L194.7531,1289.2678Q194.76996,1289.268,194.77728,1289.2681Q194.79001,1289.2682,194.78746,1289.2684Q194.79819,1289.2682,194.90338,1289.268Q194.94171,1289.2678,194.99911,1289.2678L195.12537,1289.2676L195.178,1289.2676Q195.22539,1289.2675,195.25558,1289.2675Q195.33795,1289.2672,195.33684,1289.267L195.31522,1289.2668L195.25545,1289.2667L195.16515,1289.2667L195.05196,1289.2667L194.92351,1289.2666L194.40971,1289.2666L194.31941,1289.2666L194.25964,1289.2665L194.23802,1289.2665"/>
</g>
<g>
<g style="fill:rgb(255,255,255); fill-opacity:1.0; stroke-linejoin: miter">
<path d="M-1.960121,433.25662L-7.513574,454.445L-13.067042,475.63345Q-6.5135417,469.56705,0.039968487,463.50055Q7.9175715,467.5647,15.795184,471.62894L-1.960121,433.25662"/>
</g>
<g style="fill:rgb(255,255,255); fill-opacity:1.0; stroke-linejoin: miter">
<path d="M-16.297323,449.7633L-18.891203,449.97565L-21.485086,450.188Q-10.341403,456.79523,0.80230135,463.4025Q10.196366,455.07632,19.590433,446.75006L-16.297323,449.7633"/>
</g>
</g>
<g>
<g style="fill:rgb(255,255,255); fill-opacity:1.0; stroke-linejoin: miter">
<path d="M-259.9383,725.32117L-265.49173,746.5095L-271.0452,767.698Q-264.4917,761.6316,-257.9382,755.56506Q-250.0606,759.6292,-242.18297,763.6934L-259.9383,725.32117"/>
</g>
<g style="fill:rgb(255,255,255); fill-opacity:1.0; stroke-linejoin: miter">
<path d="M-274.27548,741.8278L-276.86935,742.04016L-279.46323,742.25256Q-268.31955,748.8598,-257.17587,755.467Q-247.78181,747.14087,-238.38774,738.8146L-274.27548,741.8278"/>
</g>
</g>
<g>
<g style="fill:rgb(255,255,255); fill-opacity:1.0; stroke-linejoin: miter">
<path d="M-178.13776,945.6638L-183.69121,966.8522L-189.24466,988.04065Q-182.69116,981.97424,-176.13766,975.9077Q-168.26006,979.97186,-160.38243,984.0361L-178.13776,945.6638"/>
</g>
<g style="fill:rgb(255,255,255); fill-opacity:1.0; stroke-linejoin: miter">
<path d="M-192.47495,962.1705L-195.06883,962.3828L-197.66272,962.5952Q-186.51903,969.20245,-175.37534,975.80963Q-165.98126,967.4835,-156.5872,959.1572L-192.47495,962.1705"/>
</g>
</g>
<g>
<g style="fill:rgb(255,255,255); fill-opacity:1.0; stroke-linejoin: miter">
<path d="M-336.37857,1168.0271L-341.93204,1189.2155L-347.4855,1210.4038Q-340.93198,1204.3374,-334.37848,1198.2709Q-326.5009,1202.3351,-318.62326,1206.3993L-336.37857,1168.0271"/>
</g>
<g style="fill:rgb(255,255,255); fill-opacity:1.0; stroke-linejoin: miter">
<path d="M-350.7158,1184.5337L-353.30966,1184.7461L-355.90353,1184.9584Q-344.75986,1191.5657,-333.61615,1198.1729Q-324.22208,1189.8467,-314.82803,1181.5205L-350.7158,1184.5337"/>
</g>
</g>
<g>
<g style="fill:rgb(255,255,255); fill-opacity:1.0; stroke-linejoin: miter">
<path d="M333.91815,381.0859L328.3647,402.27426L322.81122,423.46274Q329.36475,417.3963,335.91824,411.32983Q343.79584,415.39398,351.67346,419.4582L333.91815,381.0859"/>
</g>
<g style="fill:rgb(255,255,255); fill-opacity:1.0; stroke-linejoin: miter">
<path d="M319.58093,397.59256L316.98706,397.80493L314.3932,398.0173Q325.53687,404.6245,336.68057,411.23175Q346.07465,402.90558,355.4687,394.57935L319.58093,397.59256"/>
</g>
</g>
<g>
<g style="fill:rgb(255,255,255); fill-opacity:1.0; stroke-linejoin: miter">
<path d="M1106.2892,669.0896L1098.9261,682.00543L1091.563,694.92126Q1096.9253,692.0953,1102.2875,689.2692Q1106.7383,693.3176,1111.189,697.3661L1106.2892,669.0896"/>
</g>
<g style="fill:rgb(255,255,255); fill-opacity:1.0; stroke-linejoin: miter">
<path d="M1093.9899,677.393L1092.252,677.07654L1090.514,676.7601Q1096.6593,683.04944,1102.8046,689.33887Q1110.4261,685.5304,1118.0477,681.72186L1093.9899,677.393"/>
</g>
</g>
<g>
<g style="fill:rgb(255,255,255); fill-opacity:1.0; stroke-linejoin: miter">
<path d="M885.848,815.25195L878.48486,828.1678L871.1218,841.0837Q876.48413,838.25775,881.8464,835.43176Q886.2971,839.48016,890.7478,843.5285L885.848,815.25195"/>
</g>
<g style="fill:rgb(255,255,255); fill-opacity:1.0; stroke-linejoin: miter">
<path d="M873.5486,823.55536L871.8107,823.23895L870.0728,822.9225Q876.2181,829.21185,882.3634,835.5014Q889.98486,831.6928,897.6065,827.8843L873.5486,823.55536"/>
</g>
</g>
<g>
<g style="fill:rgb(255,255,255); fill-opacity:1.0; stroke-linejoin: miter">
<path d="M900.7697,974.0817L893.40656,986.9976L886.04333,999.9134Q891.40564,997.08746,896.768,994.2615Q901.2187,998.3098,905.6694,1002.3582L900.7697,974.0817"/>
</g>
<g style="fill:rgb(255,255,255); fill-opacity:1.0; stroke-linejoin: miter">
<path d="M888.47015,982.3851L886.73224,982.0686L884.9944,981.75226Q891.1397,988.0417,897.28503,994.3311Q904.90643,990.5225,912.5281,986.71405L888.47015,982.3851"/>
</g>
</g>
<g>
<g style="fill:rgb(255,255,255); fill-opacity:1.0; stroke-linejoin: miter">
<path d="M757.9615,1092.0684L750.59845,1104.9843L743.2352,1117.9003Q748.5974,1115.0741,753.9598,1112.248Q758.41046,1116.2965,762.8612,1120.345L757.9615,1092.0684"/>
</g>
<g style="fill:rgb(255,255,255); fill-opacity:1.0; stroke-linejoin: miter">
<path d="M745.6621,1100.3718L743.9242,1100.0553L742.1863,1099.739Q748.33154,1106.0283,754.4768,1112.3177Q762.0984,1108.5093,769.72,1104.7007L745.6621,1100.3718"/>
</g>
</g>
<g>
<g style="fill:rgb(255,255,255); fill-opacity:1.0; stroke-linejoin: miter">
<path d="M889.332,580.36066L881.9688,593.2765L874.6058,606.1924Q879.9681,603.36646,885.3303,600.54047Q889.78107,604.58887,894.23175,608.6372L889.332,580.36066"/>
</g>
<g style="fill:rgb(255,255,255); fill-opacity:1.0; stroke-linejoin: miter">
<path d="M877.03253,588.66406L875.2947,588.34766L873.55676,588.0312Q879.702,594.32056,885.84735,600.6101Q893.4688,596.8015,901.09045,592.993L877.03253,588.66406"/>
</g>
</g>
<g>
<g style="fill:rgb(255,255,255); fill-opacity:1.0; stroke-linejoin: miter">
<path d="M705.517,362.3955L698.1539,375.31134L690.79083,388.22723Q696.15314,385.4013,701.5154,382.57532Q705.9661,386.62372,710.4168,390.67206L705.517,362.3955"/>
</g>
<g style="fill:rgb(255,255,255); fill-opacity:1.0; stroke-linejoin: miter">
<path d="M693.2176,370.6989L691.47974,370.3825L689.7418,370.06604Q695.8871,376.3554,702.0324,382.64496Q709.6539,378.83636,717.2755,375.02783L693.2176,370.6989"/>
</g>
</g>
<g>
<g style="fill:rgb(255,255,255); fill-opacity:1.0; stroke-linejoin: miter">
<path d="M244.60118,170.15279L237.23802,183.06862L229.87498,195.98451Q235.23729,193.15858,240.59953,190.3326Q245.05028,194.381,249.50096,198.42934L244.60118,170.15279"/>
</g>
<g style="fill:rgb(255,255,255); fill-opacity:1.0; stroke-linejoin: miter">
<path d="M232.30174,178.45619L230.56389,178.13979L228.82597,177.82332Q234.97124,184.11269,241.11656,190.40224Q248.73802,186.59364,256.35965,182.78511L232.30174,178.45619"/>
</g>
</g>
<g>
<g style="fill:rgb(255,255,255); fill-opacity:1.0; stroke-linejoin: miter">
<path d="M633.66473,345.26346L628.11127,366.4518L622.5578,387.64026Q629.11127,381.57385,635.66473,375.5074Q643.5424,379.57153,651.42,383.6357L633.66473,345.26346"/>
</g>
<g style="fill:rgb(255,255,255); fill-opacity:1.0; stroke-linejoin: miter">
<path d="M619.32745,361.77008L616.7336,361.98245L614.1397,362.19485Q625.2835,368.80206,636.4272,375.40927Q645.8212,367.08313,655.2153,358.75687L619.32745,361.77008"/>
</g>
</g>
<g>
<g style="fill:rgb(255,255,255); fill-opacity:1.0; stroke-linejoin: miter">
<path d="M-327.64102,378.899L-335.00418,391.81482L-342.36722,404.7307Q-337.0049,401.9048,-331.64267,399.0788Q-327.19193,403.1272,-322.74124,407.17554L-327.64102,378.899"/>
</g>
<g style="fill:rgb(255,255,255); fill-opacity:1.0; stroke-linejoin: miter">
<path d="M-339.94046,387.2024L-341.6783,386.886L-343.41623,386.56952Q-337.27097,392.8589,-331.12564,399.14844Q-323.50418,395.33984,-315.88254,391.5313L-339.94046,387.2024"/>
</g>
</g>
<g>
<g style="fill:rgb(255,255,255); fill-opacity:1.0; stroke-linejoin: miter">
<path d="M-523.62775,523.28186L-530.9909,536.1977L-538.35394,549.1136Q-532.99164,546.28766,-527.62933,543.4617Q-523.17865,547.5101,-518.72797,551.5584L-523.62775,523.28186"/>
</g>
<g style="fill:rgb(255,255,255); fill-opacity:1.0; stroke-linejoin: miter">
<path d="M-535.9272,531.58527L-537.665,531.26886L-539.4029,530.9524Q-533.2576,537.24176,-527.11237,543.5313Q-519.4909,539.7227,-511.86926,535.9142L-535.9272,531.58527"/>
</g>
</g>
<g>
<g style="fill:rgb(255,255,255); fill-opacity:1.0; stroke-linejoin: miter">
<path d="M-516.55304,285.8206L-523.9162,298.73642L-531.27924,311.6523Q-525.91693,308.8264,-520.5546,306.0004Q-516.10394,310.0488,-511.6533,314.09714L-516.55304,285.8206"/>
</g>
<g style="fill:rgb(255,255,255); fill-opacity:1.0; stroke-linejoin: miter">
<path d="M-528.8525,294.124L-530.5903,293.8076L-532.3282,293.49112Q-526.1829,299.7805,-520.03766,306.07004Q-512.4162,302.26144,-504.79456,298.4529L-528.8525,294.124"/>
</g>
</g>
<g>
<g style="fill:rgb(255,255,255); fill-opacity:1.0; stroke-linejoin: miter">
<path d="M960.02655,680.56537L970.8747,661.5363L981.7229,642.50714Q973.82263,646.6707,965.9223,650.83435Q959.365,644.8698,952.8077,638.9052L960.02655,680.56537"/>
</g>
<g style="fill:rgb(255,255,255); fill-opacity:1.0; stroke-linejoin: miter">
<path d="M978.14746,668.3319L980.7079,668.7981L983.2684,669.26434Q974.2145,659.998,965.1606,650.73175Q953.93164,656.34283,942.70264,661.954L978.14746,668.3319"/>
</g>
</g>
<g>
<g style="fill:rgb(255,255,255); fill-opacity:1.0; stroke-linejoin: miter">
<path d="M938.0422,446.55917L948.8903,427.53012L959.7385,408.501Q951.8382,412.66452,943.9379,416.82822Q937.38055,410.86362,930.8233,404.89902L938.0422,446.55917"/>
</g>
<g style="fill:rgb(255,255,255); fill-opacity:1.0; stroke-linejoin: miter">
<path d="M956.163,434.3257L958.7235,434.79196L961.284,435.25815Q952.23004,425.99185,943.17615,416.72562Q931.9472,422.33664,920.71826,427.94785L956.163,434.3257"/>
</g>
</g>
<g>
<g style="fill:rgb(255,255,255); fill-opacity:1.0; stroke-linejoin: miter">
<path d="M1148.4429,272.7285L1159.291,253.69945L1170.1392,234.67027Q1162.2389,238.83385,1154.3386,242.99754Q1147.7812,237.03294,1141.224,231.06834L1148.4429,272.7285"/>
</g>
<g style="fill:rgb(255,255,255); fill-opacity:1.0; stroke-linejoin: miter">
<path d="M1166.5637,260.49496L1169.1243,260.96115L1171.6847,261.42758Q1162.6307,252.16112,1153.5769,242.89488Q1142.3479,248.50597,1131.119,254.11705L1166.5637,260.49496"/>
</g>
</g>
<g>
<g style="fill:rgb(255,255,255); fill-opacity:1.0; stroke-linejoin: miter">
<path d="M-374.20172,381.27527L-363.7467,370.70532L-353.29163,360.13525Q-359.20264,361.47705,-365.11353,362.81897Q-368.36487,357.7566,-371.61603,352.69415L-374.20172,381.27527"/>
</g>
<g style="fill:rgb(255,255,255); fill-opacity:1.0; stroke-linejoin: miter">
<path d="M-360.17236,376.4381L-358.57556,377.1936L-356.97876,377.9491Q-361.28687,370.2835,-365.59497,362.61792Q-373.9425,364.32397,-382.29016,366.03015L-360.17236,376.4381"/>
</g>
</g>
<g>
<g style="fill:rgb(255,255,255); fill-opacity:1.0; stroke-linejoin: miter">
<path d="M-123.44227,297.14764L-112.98719,286.57764L-102.53211,276.00757Q-108.44312,277.34937,-114.35401,278.69116Q-117.605354,273.62878,-120.856575,268.5664L-123.44227,297.14764"/>
</g>
<g style="fill:rgb(255,255,255); fill-opacity:1.0; stroke-linejoin: miter">
<path d="M-109.41285,292.31055L-107.81611,293.06592L-106.21931,293.8214Q-110.52735,286.15588,-114.83546,278.4901Q-123.18299,280.1964,-131.53064,281.90247L-109.41285,292.31055"/>
</g>
</g>
<g>
<g style="fill:rgb(255,255,255); fill-opacity:1.0; stroke-linejoin: miter">
<path d="M-96.74738,139.8678L-86.292175,129.29785L-75.837036,118.72791Q-81.74805,120.06971,-87.65906,121.41151Q-90.91028,116.34913,-94.16162,111.28675L-96.74738,139.8678"/>
</g>
<g style="fill:rgb(255,255,255); fill-opacity:1.0; stroke-linejoin: miter">
<path d="M-82.71777,135.03088L-81.12109,135.78625L-79.52429,136.54163Q-83.8324,128.8761,-88.1405,121.210335Q-96.48792,122.91663,-104.83558,124.62269L-82.71777,135.03088"/>
</g>
</g>
<g>
<g style="fill:rgb(255,255,255); fill-opacity:1.0; stroke-linejoin: miter">
<path d="M-187.6018,523.13354L-177.14673,512.56354L-166.69165,501.99344Q-172.60266,503.33524,-178.51361,504.6771Q-181.76495,499.61465,-185.01617,494.55234L-187.6018,523.13354"/>
</g>
<g style="fill:rgb(255,255,255); fill-opacity:1.0; stroke-linejoin: miter">
<path d="M-173.57245,518.2964L-171.97571,519.0518L-170.3789,519.8073Q-174.68689,512.1417,-178.99506,504.47598Q-187.34253,506.18228,-195.6902,507.8884L-173.57245,518.2964"/>
</g>
</g>
<g>
<g style="fill:rgb(255,255,255); fill-opacity:1.0; stroke-linejoin: miter">
<path d="M-66.4638,781.2465L-56.008663,770.67645L-45.553585,760.1064Q-51.464596,761.4482,-57.375546,762.79Q-60.626827,757.7276,-63.878048,752.6653L-66.4638,781.2465"/>
</g>
<g style="fill:rgb(255,255,255); fill-opacity:1.0; stroke-linejoin: miter">
<path d="M-52.434322,776.40936L-50.83758,777.16473L-49.24084,777.9202Q-53.548885,770.25464,-57.85693,762.5889Q-66.2044,764.29517,-74.552055,766.0013L-52.434322,776.40936"/>
</g>
</g>
<g>
<g style="fill:rgb(255,255,255); fill-opacity:1.0; stroke-linejoin: miter">
<path d="M-238.83705,943.53784L-228.38197,932.96783L-217.92696,922.39777Q-223.83797,923.7395,-229.74886,925.08136Q-233.0002,920.019,-236.25142,914.95667L-238.83705,943.53784"/>
</g>
<g style="fill:rgb(255,255,255); fill-opacity:1.0; stroke-linejoin: miter">
<path d="M-224.8077,938.70074L-223.21095,939.4561L-221.61415,940.2116Q-225.92226,932.546,-230.2303,924.8803Q-238.57777,926.5865,-246.92543,928.29266L-224.8077,938.70074"/>
</g>
</g>
<g>
<g style="fill:rgb(255,255,255); fill-opacity:1.0; stroke-linejoin: miter">
<path d="M-1.4938964,816.39154L9.354308,797.3625L20.202482,778.3333Q12.302245,782.4969,4.401977,786.6605Q-2.1554563,780.6959,-8.712707,774.7314L-1.4938964,816.39154"/>
</g>
<g style="fill:rgb(255,255,255); fill-opacity:1.0; stroke-linejoin: miter">
<path d="M16.627104,804.1581L19.18756,804.6243L21.748014,805.0905Q12.693999,795.82416,3.6400754,786.5579Q-7.5888057,792.169,-18.817747,797.7802L16.627104,804.1581"/>
</g>
</g>
<g>
<g style="fill:rgb(255,255,255); fill-opacity:1.0; stroke-linejoin: miter">
<path d="M935.7617,1032.7062L946.21686,1022.1363L956.6718,1011.5662Q950.76086,1012.9079,944.8499,1014.2498Q941.59863,1009.1874,938.3474,1004.12506L935.7617,1032.7062"/>
</g>
<g style="fill:rgb(255,255,255); fill-opacity:1.0; stroke-linejoin: miter">
<path d="M949.79114,1027.8691L951.3879,1028.6245L952.9847,1029.38Q948.6766,1021.7145,944.3685,1014.0487Q936.02106,1015.75494,927.6734,1017.4611L949.79114,1027.8691"/>
</g>
</g>
<g>
<g style="fill:rgb(255,255,255); fill-opacity:1.0; stroke-linejoin: miter">
<path d="M1162.4393,943.9682L1172.8945,933.39813L1183.3495,922.82806Q1177.4385,924.16986,1171.5275,925.5117Q1168.2764,920.44934,1165.025,915.387L1162.4393,943.9682"/>
</g>
<g style="fill:rgb(255,255,255); fill-opacity:1.0; stroke-linejoin: miter">
<path d="M1176.4688,939.13104L1178.0654,939.8865L1179.6622,940.6419Q1175.3542,932.9764,1171.0461,925.3106Q1162.6987,927.01685,1154.351,928.72296L1176.4688,939.13104"/>
</g>
</g>
<g>
<g style="fill:rgb(255,255,255); fill-opacity:1.0; stroke-linejoin: miter">
<path d="M1094.1462,1171.5071L1104.6013,1160.9371L1115.0564,1150.367Q1109.1454,1151.7087,1103.2344,1153.0505Q1099.9832,1147.9882,1096.7319,1142.9259L1094.1462,1171.5071"/>
</g>
<g style="fill:rgb(255,255,255); fill-opacity:1.0; stroke-linejoin: miter">
<path d="M1108.1757,1166.6699L1109.7723,1167.4253L1111.3691,1168.1808Q1107.061,1160.5153,1102.753,1152.8495Q1094.4055,1154.5558,1086.0579,1156.2618L1108.1757,1166.6699"/>
</g>
</g>
<g>
<g style="fill:rgb(255,255,255); fill-opacity:1.0; stroke-linejoin: miter">
<path d="M55.614445,932.03015L34.48816,937.8149L13.361574,943.5998Q21.892033,946.24207,30.422552,948.8843Q30.84168,957.7386,31.260809,966.5929L55.614445,932.03015"/>
</g>
<g style="fill:rgb(255,255,255); fill-opacity:1.0; stroke-linejoin: miter">
<path d="M34.150696,927.8671L32.66986,925.7269L31.189028,923.5868Q31.038824,936.5412,30.888678,949.4954Q42.796333,953.4679,54.70411,957.44025L34.150696,927.8671"/>
</g>
</g>
<g>
<g style="fill:rgb(255,255,255); fill-opacity:1.0; stroke-linejoin: miter">
<path d="M-94.30753,1113.0427L-115.43388,1118.8275L-136.56035,1124.6123Q-128.02995,1127.2545,-119.499435,1129.8967Q-119.080246,1138.7511,-118.66118,1147.6053L-94.30753,1113.0427"/>
</g>
<g style="fill:rgb(255,255,255); fill-opacity:1.0; stroke-linejoin: miter">
<path d="M-115.771286,1108.8796L-117.25212,1106.7395L-118.73302,1104.5994Q-118.883224,1117.5537,-119.03337,1130.5079Q-107.12572,1134.4803,-95.21793,1138.4526L-115.771286,1108.8796"/>
</g>
</g>
<g>
<g style="fill:rgb(255,255,255); fill-opacity:1.0; stroke-linejoin: miter">
<path d="M-366.0002,1087.1837L-387.1266,1092.9685L-408.25293,1098.7533Q-399.72253,1101.3955,-391.19202,1104.0377Q-390.77298,1112.8921,-390.3539,1121.7465L-366.0002,1087.1837"/>
</g>
<g style="fill:rgb(255,255,255); fill-opacity:1.0; stroke-linejoin: miter">
<path d="M-387.464,1083.0206L-388.94482,1080.8805L-390.42566,1078.7404Q-390.5758,1091.6947,-390.72595,1104.6489Q-378.81827,1108.6215,-366.9106,1112.5938L-387.464,1083.0206"/>
</g>
</g>
<g>
<g style="fill:rgb(255,255,255); fill-opacity:1.0; stroke-linejoin: miter">
<path d="M103.919,1127.5469L118.30054,1131.3162L132.68207,1135.0854Q128.56451,1130.6373,124.44697,1126.1891Q127.20551,1120.8422,129.96399,1115.4955L103.919,1127.5469"/>
</g>
<g style="fill:rgb(255,255,255); fill-opacity:1.0; stroke-linejoin: miter">
<path d="M115.12286,1137.2781L115.26703,1139.0386L115.411194,1140.7992Q119.89569,1133.2355,124.38044,1125.6716Q118.729065,1119.2957,113.0777,1112.9194L115.12286,1137.2781"/>
</g>
</g>
<g>
<g style="fill:rgb(255,255,255); fill-opacity:1.0; stroke-linejoin: miter">
<path d="M-122.81602,1059.4126L-108.43454,1063.182L-94.05312,1066.9513Q-98.17062,1062.503,-102.28818,1058.055Q-99.52969,1052.7081,-96.77121,1047.3613L-122.81602,1059.4126"/>
</g>
<g style="fill:rgb(255,255,255); fill-opacity:1.0; stroke-linejoin: miter">
<path d="M-111.612274,1069.1438L-111.46806,1070.9044L-111.32396,1072.665Q-106.839386,1065.1012,-102.35477,1057.5375Q-108.00607,1051.1615,-113.6575,1044.7853L-111.612274,1069.1438"/>
</g>
</g>
<g>
<g style="fill:rgb(255,255,255); fill-opacity:1.0; stroke-linejoin: miter">
<path d="M105.96754,1201.3849L127.8713,1201.2651L149.77518,1201.1454Q142.21927,1196.3854,134.66328,1191.6254Q136.55013,1182.9642,138.43684,1174.3031L105.96754,1201.3849"/>
</g>
<g style="fill:rgb(255,255,255); fill-opacity:1.0; stroke-linejoin: miter">
<path d="M125.62252,1210.9613L126.498985,1213.4119L127.37551,1215.8624Q130.87337,1203.3883,134.37117,1190.9142Q123.89742,1183.9952,113.42346,1177.0762L125.62252,1210.9613"/>
</g>
</g>
<g style="fill:rgb(0,0,0); fill-opacity:0.16078432; stroke-linejoin: miter">
<path d="M843.7905,803.5019L843.7905,803.5019C835.36,1004.355,665.70746,1160.3451,464.8592,1151.9147L464.8592,1151.9147C264.01105,1143.4843,108.02736,973.8255,116.457954,772.9728L116.457954,772.9728C124.88856,572.1202,294.54108,416.12964,495.38922,424.56003L495.38925,424.56003C696.23737,432.99045,852.2211,602.6491,843.7905,803.5019L843.7905,803.5019 M793.10364,801.3743L793.10364,801.3743C800.3593,628.5135,666.1148,482.5023,493.2617,475.24692L493.26172,475.24692C320.40866,467.99158,174.40048,602.2397,167.1448,775.10034L167.1448,775.10034C159.88916,947.9609,294.13376,1093.9725,466.98676,1101.2279L466.98676,1101.2279C639.8398,1108.4833,785.848,974.2353,793.10364,801.3743 Z"/>
</g>
<g style="fill:rgb(0,0,0); fill-opacity:1.0; stroke-linejoin: miter">
<path d="M107.84058,139.66014L107.84058,139.66014L107.84058,139.66014L107.84058,139.66014L107.84058,139.66014L107.84058,139.66014L107.84058,139.66014L107.84058,139.66014L107.84058,139.66014L107.84058,139.66014 M110.40745,201.87556L110.40745,201.87556L110.40745,201.87556L110.40745,201.87556L110.40745,201.87556L110.40745,201.87556L110.40745,201.87556L110.40745,201.87556L110.40745,201.87556 Z"/>
</g>
</g>
</svg>