<?xml version="1.0" encoding="UTF-8"?>
<svg enable-background="new 0 0 40.833 52.177" viewBox="0 0 40.833 52.177" xmlns="http://www.w3.org/2000/svg">
 <defs>
  <radialGradient id="c" cx="25.205" cy="25.089" r="23.359" gradientUnits="userSpaceOnUse">
   <stop stop-color="#fff200" offset="0"/>
   <stop stop-color="#00704d" offset=".927"/>
   <stop stop-color="#006e3a" offset="1"/>
  </radialGradient>
  <radialGradient id="b" cx="25.098" cy="37.317" r="4.5517" gradientUnits="userSpaceOnUse">
   <stop stop-color="#565759" offset="0"/>
   <stop offset="1"/>
  </radialGradient>
  <radialGradient id="a" cx="16.47" cy="45.144" r="11.244" gradientUnits="userSpaceOnUse">
   <stop stop-color="#1e3319" offset="0"/>
   <stop stop-color="#006e3a" offset="1"/>
  </radialGradient>
  <radialGradient id="f" cx="12.054" cy="14.783" r="4.2553" gradientTransform="matrix(.9119 .4105 -.4105 .9119 10.237 -4.3384)" gradientUnits="userSpaceOnUse">
   <stop stop-color="#fff200" offset="0"/>
   <stop stop-color="#006e3a" offset="1"/>
  </radialGradient>
  <radialGradient id="e" cx="12.466" cy="14.964" r="4.2553" gradientTransform="matrix(-.9983 .0576 .0576 .9983 43.882 1.8774)" gradientUnits="userSpaceOnUse">
   <stop stop-color="#fff200" offset="0"/>
   <stop stop-color="#006e3a" offset="1"/>
  </radialGradient>
  <radialGradient id="d" cx="26.165" cy="39.269" r="3.9685" gradientUnits="userSpaceOnUse">
   <stop stop-color="#565759" offset="0"/>
   <stop offset="1"/>
  </radialGradient>
 </defs>
 <path d="m38.745 49.074a18.429 2.184 0 1 0 -36.858 0 18.429 2.184 0 1 0 36.858 0" fill="#bcbec0" opacity=".75"/>
 <path d="m29.097,14.461-.097-.483 .018-.021c-.366-.303-.698-.789-1.061-1.114-.093.225-.166.411-.199.526l-.727.156c-.987-.374-2.022-.664-3.097-.862-.794-.147-1.585-.239-2.371-.278l-.585-.431c.001-.118-1.706.463-1.706.463-7.884.617-14.683,6.448-16.188,14.594-1.795,9.719 4.628,19.054 14.348,20.85 9.719,1.795 19.054-4.628 20.85-14.348 1.453-7.867-2.478-15.484-9.185-19.052z" fill="#8cc63f" stroke="#006031" stroke-width=".4831"/>
 <path d="m38.054 30.352a17.338 17.338 0 1 0 -34.676 0 17.338 17.338 0 1 0 34.676 0" fill="url(#c)" stroke="#28903a" stroke-width=".4831"/>
 <path d="m18.702,35.392c-.429.963-1.59,1.854-2.353,2.155-1.117.44-2.519.423-3.542-.255-1.051-.697-1.92-2.409-.168-2.67 1.034-.154 2.396.455 3.364.065 .749-.301 2.488-1.918 2.837-.291 .071.327.01.666-.138.996z" fill="url(#b)"/>
 <path d="m21.002,40.698c.914.168 1.813.392 2.67.667 .751.241 1.243.374 1.64.995 1.122,1.754-.543,3.927-2.402,2.511-.72-.548-.952-1.521-1.763-1.945-1.781-.932-3.277.576-4.911,1.097-1.388.443-3.087.497-3.328-1.313-.319-2.393 2.522-2.373 4.134-2.375 1.306-.003 2.65.123 3.96.363z" fill="url(#a)" stroke="#1e3319" stroke-width=".5797"/>
 <path d="m16.857,12.14c-.779-.864-1.947-1.357-3.192-1.223-2.063.22-3.556,2.07-3.335,4.133s2.071,3.554 4.133,3.334 3.555-2.071 3.334-4.133c-.02-.191 3.621-2.042 3.621-2.042-.067-.189.884.169.75.021-.702-1.878-1.57-1.275-1.929-1.342-1.117.415-3.287,1.358-3.382,1.252z" fill="#8cc63f" stroke="#006031" stroke-width=".4831"/>
 <path d="m17.18 14.629a3.159 3.159 0 1 0 -6.318 0 3.159 3.159 0 1 0 6.318 0" fill="url(#f)" opacity=".5"/>
 <path d="m31.412,15.108c1.036-.529 2.303-.572 3.418-.002 1.849.943 2.582,3.205 1.639,5.052s-3.204,2.58-5.052,1.638-2.581-3.205-1.638-5.052c.087-.171-2.652-3.2-2.652-3.2 .13-.153-.886-.158-.707-.249 1.326-1.503 1.921-.63 2.281-.564 .894.786 2.585,2.442 2.711,2.377z" fill="#8cc63f" stroke="#006031" stroke-width=".4831"/>
 <path d="m36.33 18.446a3.159 3.159 0 1 0 -6.318 0 3.159 3.159 0 1 0 6.318 0" fill="url(#e)" opacity=".5"/>
 <path d="m29.055,37.516 .135.049c.681.242 1.669.179 1.096,1.164-.404.694-1.378.889-2.113.9-1.569.024-3.131-.91-3.787-2.347-.33-.722-.094-3.904 1.285-2.799 .598.479.974,1.255 1.496,1.833 .538.594 1.149.926 1.888,1.2z" fill="url(#d)"/>
 <path d="m12.058,35.282c.332,0 .705.031 1.006-.052 .15.847-.972.939-.923.135" fill="#fff"/>
 <path d="m25.225,35.291c-.567.711.326.874.822.821-.059-.354-.484-.584-.822-.737" fill="#fff"/>
 <path d="m25.808,37.208c-.115.025-.226.059-.335.103 .093.696 1.027.022.251-.019" fill="#fff"/>
 <path d="m13.641,36.458c-.045.146-.021.266.075.36 .141-.016.222-.046.331-.127-.062-.304-.183-.236-.406-.15" fill="#fff"/>
</svg>
