<?xml version="1.0" encoding="UTF-8"?>
<svg enable-background="new 0 0 40.833 52.176" viewBox="0 0 40.833 52.176" xmlns="http://www.w3.org/2000/svg">
 <defs>
  <radialGradient id="c" cx="23.286" cy="25.441" r="23.359" gradientTransform="matrix(.9593 -.2824 -.2824 -.9593 8.2812 55.815)" gradientUnits="userSpaceOnUse">
   <stop stop-color="#fff200" offset="0"/>
   <stop stop-color="#006e3a" offset="1"/>
  </radialGradient>
  <radialGradient id="b" cx=".7373" cy="38.362" r="4.2551" gradientTransform="matrix(.9499 -.3127 -.3127 -.9499 19.172 44.398)" gradientUnits="userSpaceOnUse">
   <stop stop-color="#fff200" offset="0"/>
   <stop stop-color="#006e3a" offset="1"/>
  </radialGradient>
  <radialGradient id="a" cx="14.048" cy="37.967" r="4.2546" gradientTransform="matrix(.9499 -.3127 -.3127 -.9499 19.172 44.398)" gradientUnits="userSpaceOnUse">
   <stop stop-color="#fff200" offset="0"/>
   <stop stop-color="#006e3a" offset="1"/>
  </radialGradient>
  <radialGradient id="f" cx="21.844" cy="154.13" r="7.7321" gradientTransform="matrix(.9904 .1384 .2052 -1.4688 -30.808 250.95)" gradientUnits="userSpaceOnUse">
   <stop stop-color="#565759" offset="0"/>
   <stop offset="1"/>
  </radialGradient>
  <radialGradient id="e" cx="19.835" cy="155.9" r="8.109" gradientTransform="matrix(.9904 .1384 .2052 -1.4688 -30.808 250.95)" gradientUnits="userSpaceOnUse">
   <stop stop-color="#565759" offset="0"/>
   <stop offset="1"/>
  </radialGradient>
  <radialGradient id="d" cx="15.416" cy="36.974" r="13.955" gradientUnits="userSpaceOnUse">
   <stop stop-color="#1e3319" offset="0"/>
   <stop stop-color="#006e3a" offset="1"/>
  </radialGradient>
 </defs>
 <path d="m38.745 49.074a18.429 2.184 0 1 0 -36.858 0 18.429 2.184 0 1 0 36.858 0" fill="#bcbec0" opacity=".75"/>
 <path d="m21.034,13.153c7.595.153 14.544,5.17 16.803,12.845 2.791,9.482-2.634,19.43-12.114,22.22s-19.43-2.633-22.221-12.114c-2.339-7.946 1.091-16.221 7.846-20.335l-.013-.404c-.602-.436-2.567-2.983-2.75-2.925-1.97.649-4.093-.422-4.742-2.392s.423-4.092 2.392-4.741 4.094.422 4.742,2.393c.392,1.189.155,2.436-.526,3.378-.099.137 1.889,2.859 2.208,3.506l.716.12c.719-.32 1.466-.595 2.241-.823 1.049-.309 2.103-.517 3.153-.63l.577-.468c-.13-.7-.178-4.077-.339-4.131-1.094-.358-2.01-1.216-2.398-2.394-.65-1.969.422-4.092 2.391-4.74s4.092.423 4.742,2.392-.423,4.093-2.393,4.742c-.188.062-.389,3.345-.621,4.113l.306.388z" fill="#8cc63f" stroke="#006031" stroke-width=".4831"/>
 <path d="m37.953 31.149a17.338 17.338 0 1 0 -34.676 0 17.338 17.338 0 1 0 34.676 0" fill="url(#c)" stroke="#28903a" stroke-width=".4831"/>
 <path d="m10.556 8.896a3.159 3.159 0 1 0 -6.318 0 3.159 3.159 0 1 0 6.318 0" fill="url(#b)" opacity=".5"/>
 <path d="m23.324 5.107a3.159 3.159 0 1 0 -6.318 0 3.159 3.159 0 1 0 6.318 0" fill="url(#a)" opacity=".41"/>
 <path d="m30.22,29.219c-.491-.863-1.626-1.764-2.232-2.116-1.429-.831-3.497-.867-4.946-.046-.944.535-1.341,1.72-.208,2.286 1.235.617 2.434-.871 3.679-1.011 .67-.075 4.253.965 3.894,1.925 .115-.309.023-.67-.187-1.038z" fill="url(#f)"/>
 <path d="m18.894,26.359c-.083-1.806-.557-4.175-2.141-4.615-2.102-.583-3.878,2.227-4.772,3.678-1.125,1.828-.663,3.54 1.301,4.666 1.998,1.146 5.482-.066 5.609-2.483 .02-.35.024-.779.003-1.246z" fill="url(#e)"/>
 <path d="m22.616,20.546c-.221.166-.265.479-.099.7s.479.265.7.099c2.01-1.511 5.544-1.415 7.155.608-1.98-2.486-4.989-3.491-7.756-1.407z" fill="#357a1f"/>
 <path d="m24.78,42.614c-5.522,1.931-12.611-.269-15.05-5.944 1.941,4.519 5.548,6.908 10.225,7.846 2.001.401 3.318.658 5.168-.427 2.117-1.243 3.85-3.23 4.894-5.444-1.304,1.931-3.16,3.241-5.237,3.969z" fill="url(#d)" stroke="#1e3319" stroke-width=".4203"/>
 <path d="m28.417,38.588c.821-.399 2.569-.772 3,.333" fill="none" stroke="#1e3319" stroke-width=".4203"/>
 <path d="m25.772,42.512c-.822-.19-1.776.055-2.563.295-.862.263-1.657.639-2.351,1.216-.131.108-.269.194-.39.313-.05.05-.112.131-.181.171 .119.104.386.076.542.114 .356.088.666.201 1.043.182 .402-.021 1.046.126 1.264-.278 .222-.413.436-.718.867-.95 .223-.12.44-.18.692-.189 .241-.009.503-.027.737.049 .419.139.732.188.934.622 .148.32.196.694.194,1.045-.002.483-.187,1.32-.705,1.534 .457-.1.959-.598 1.173-.997s.227-.803.313-1.229c-.037.182 1.063.38 1.202.39 .469.033.941-.06 1.403-.126-.631-.203-1.495-.394-2.155-.884-.669-.498-1.156-1.078-2.019-1.278z" fill="#1e3319"/>
</svg>
