<?xml version="1.0" encoding="UTF-8"?>
<svg enable-background="new -2.296 -2.604 50.519 57.282" viewBox="-2.296 -2.604 50.519 57.282" xmlns="http://www.w3.org/2000/svg">
 <defs>
  <radialGradient id="f" cx="99.075" cy="182.33" r="25.26" gradientTransform="matrix(.9361 .3519 .3519 -.9361 -128.84 162.86)" gradientUnits="userSpaceOnUse">
   <stop stop-color="#fff200" offset="0"/>
   <stop stop-color="#006e3a" offset=".9157"/>
   <stop stop-color="#005d36" offset="1"/>
  </radialGradient>
  <radialGradient id="e" cx="84.808" cy="190.81" r="4.6023" gradientTransform="matrix(.9468 .3219 .3219 -.9468 -115.96 155.51)" gradientUnits="userSpaceOnUse">
   <stop stop-color="#fff200" offset="0"/>
   <stop stop-color="#006e3a" offset="1"/>
  </radialGradient>
  <radialGradient id="d" cx="99.203" cy="190.39" r="4.6015" gradientTransform="matrix(.9468 .3219 .3219 -.9468 -115.96 155.51)" gradientUnits="userSpaceOnUse">
   <stop stop-color="#fff200" offset="0"/>
   <stop stop-color="#006e3a" offset="1"/>
  </radialGradient>
  <radialGradient id="c" cx="95.348" cy="168.35" r="3.0058" gradientTransform="matrix(.991 -.1344 -.1344 -.991 -46.36 215.85)" gradientUnits="userSpaceOnUse">
   <stop stop-color="#565759" offset="0"/>
   <stop offset="1"/>
  </radialGradient>
  <radialGradient id="b" cx="-689.2" cy="665.46" r="2.557" gradientTransform="matrix(-.9799 .1995 .1995 .9799 -779.58 -479.15)" gradientUnits="userSpaceOnUse">
   <stop stop-color="#565759" offset="0"/>
   <stop offset="1"/>
  </radialGradient>
  <radialGradient id="a" cx="102.24" cy="85.453" r="3.6894" gradientTransform="matrix(.9361 .3519 .2247 -.5978 -90.886 61.926)" gradientUnits="userSpaceOnUse">
   <stop stop-color="#143557" offset="0"/>
   <stop stop-color="#12395b" offset=".1637"/>
   <stop stop-color="#034366" offset=".3894"/>
   <stop stop-color="#005478" offset=".6511"/>
   <stop stop-color="#006c94" offset=".9379"/>
   <stop stop-color="#00729a" offset="1"/>
  </radialGradient>
 </defs>
 <path d="m46.954 51.323a22.793 2.361 0 1 0 -45.586 0 22.793 2.361 0 1 0 45.586 0" fill="#bcbec0" opacity=".75"/>
 <path d="m33.597,15.392c6.46,5.076 9.197,13.932 6.152,22.03-3.762,10.005-14.92,15.066-24.928,11.307-10.004-3.76-15.065-14.921-11.305-24.926 3.152-8.387 11.5-13.299 20.01-12.456l.252-.358c-.235-.768-.275-4.248-.473-4.314-2.124-.722-3.259-3.028-2.538-5.152s3.028-3.258 5.152-2.538c2.125.723 3.262,3.029 2.539,5.154-.437,1.282-1.452,2.203-2.653,2.574-.176.054-.23,3.698-.375,4.465l.539.57c.829.192 1.655.44 2.472.749 1.107.415 2.152.921 3.134,1.507l.802-.029c.343-.688 2.5-3.636 2.396-3.787-.712-1.022-.945-2.358-.514-3.628 .723-2.124 3.029-3.26 5.153-2.538s3.26,3.028 2.538,5.151c-.724,2.125-3.029,3.26-5.152,2.539-.204-.069-2.515,2.634-3.213,3.148l.012.532z" fill="#8cc63f" stroke="#006031" stroke-width=".5224"/>
 <path d="m40.271 30.663a18.75 18.75 0 1 0 -37.5 0 18.75 18.75 0 1 0 37.5 0" fill="url(#f)" stroke="#28903a" stroke-width=".5224"/>
 <path d="m28.005 2.841a3.416 3.416 0 1 0 -6.832 0 3.416 3.416 0 1 0 6.832 0" fill="url(#e)" opacity=".5"/>
 <path d="m41.498 7.878a3.416 3.416 0 1 0 -6.832 0 3.416 3.416 0 1 0 6.832 0" fill="url(#d)" opacity=".41"/>
 <path d="m16.396,36.194c.962-.132 3.002-.294 3.6.476 .428.552-.091.474-.544.419-.591-.072-1.172-.257-1.78-.269-1.029-.021-1.924.305-2.867.663-.455.175-1.381.333-.602-.348 .549-.48 1.476-.842 2.193-.941z" fill="url(#c)"/>
 <path d="m28.756,36.076c-.493-.166-1.004-.267-1.474-.297-.74-.05-2.398-.146-2.547.892 .514.267 1.27-.171 1.835-.192 1.438-.059 2.734,1.157 4.138,1.016 .137-.013-.571-.715-.592-.731-.399-.308-.883-.527-1.36-.688z" fill="url(#b)"/>
 <path d="m23.993,47.062c-.762-.192-1.388-.75-1.268-1.603 .111-.797.419-1.489 1.239-1.742 .506-.157 1.098-.032 1.551.226 .705.399.961,1.411.663,2.133-.39.95-1.185,1.24-2.185.986z" fill="url(#a)"/>
 <path d="m22.646,45.302c.058-.646.553-1.313 1.125-1.542 .939-.376 2.319.277 2.537,1.29 .258,1.197-1.026,2.264-2.142,1.979-.638-.162-1.333-.628-1.496-1.321-.03-.131-.037-.268-.024-.406z" fill="none" stroke="#1e3319" stroke-width=".33"/>
 <path d="m1.219,13.511c.25.248.395.59.665.828-.669.698-.263,2.66.17,3.386 .34-.894.796-1.91 1.654-2.422-.133.962.623,1.57.968,2.373-1.165-.573-2.788,1.547-2.836,2.547-.363-.705-.452-1.652-.571-2.426-.139-.902.048-1.786-.007-2.646-.619.888-1.144,2.235-1.158,3.28-.174-.466-.087-2.041-.79-2.042 .263-.182 1.826-2.957 1.905-2.878z" fill="#185c00"/>
 <path d="m8.157,6.087c.264.447.342.99.641,1.432-1.218.747-1.372,3.705-1.024,4.905 .82-1.15 1.852-2.433 3.271-2.844-.552,1.326.305,2.476.497,3.756-1.452-1.258-4.567,1.168-5.008,2.579-.256-1.142-.027-2.532.091-3.681 .14-1.343.738-2.535.979-3.787-1.216,1.038-2.473,2.768-2.883,4.256-.074-.731.639-2.951-.365-3.215 .444-.162 3.717-3.544 3.801-3.401z" fill="#185c00"/>
 <path d="m17.863-.281c.201.67.127,1.408.375,2.083-1.834.583-2.99,4.411-2.923,6.095 1.448-1.244 3.21-2.591 5.204-2.671-1.152,1.558-.401,3.343-.562,5.08-1.496-2.115-6.36.057-7.392,1.765 .032-1.579.779-3.326 1.306-4.793 .615-1.715 1.784-3.084 2.504-4.646-1.93.969-4.131,2.829-5.149,4.647 .137-.982 1.789-3.66.558-4.329 .636-.071 6.014-3.446 6.079-3.231z" fill="#185c00"/>
</svg>
