<?xml version="1.0" encoding="UTF-8"?>
<svg enable-background="new 0 0 40.833 52.176" viewBox="0 0 40.833 52.176" xmlns="http://www.w3.org/2000/svg">
 <defs>
  <radialGradient id="f" cx="23.286" cy="25.441" r="23.359" gradientTransform="matrix(.9593 -.2824 -.2824 -.9593 8.2812 55.815)" gradientUnits="userSpaceOnUse">
   <stop stop-color="#fff200" offset="0"/>
   <stop stop-color="#006e3a" offset="1"/>
  </radialGradient>
  <radialGradient id="e" cx=".7373" cy="38.362" r="4.2551" gradientTransform="matrix(.9499 -.3127 -.3127 -.9499 19.172 44.398)" gradientUnits="userSpaceOnUse">
   <stop stop-color="#fff200" offset="0"/>
   <stop stop-color="#006e3a" offset="1"/>
  </radialGradient>
  <radialGradient id="d" cx="14.048" cy="37.967" r="4.2546" gradientTransform="matrix(.9499 -.3127 -.3127 -.9499 19.172 44.398)" gradientUnits="userSpaceOnUse">
   <stop stop-color="#fff200" offset="0"/>
   <stop stop-color="#006e3a" offset="1"/>
  </radialGradient>
  <radialGradient id="c" cx="21.228" cy="154.92" r="6.7508" gradientTransform="matrix(.9904 .1384 .2052 -1.4688 -30.808 250.95)" gradientUnits="userSpaceOnUse">
   <stop stop-color="#565759" offset="0"/>
   <stop offset="1"/>
  </radialGradient>
  <radialGradient id="b" cx="12.562" cy="9.8237" r="11.925" gradientTransform="matrix(.9593 -.2824 -.2824 -.9593 8.2812 55.815)" gradientUnits="userSpaceOnUse">
   <stop stop-color="#1e3319" offset="0"/>
   <stop stop-color="#006e3a" offset="1"/>
  </radialGradient>
  <radialGradient id="a" cx="21.365" cy="156.38" r="8.8227" gradientTransform="matrix(.9904 .1384 .2052 -1.4688 -30.808 250.95)" gradientUnits="userSpaceOnUse">
   <stop stop-color="#565759" offset="0"/>
   <stop offset="1"/>
  </radialGradient>
 </defs>
 <path d="m38.745 49.074a18.429 2.184 0 1 0 -36.858 0 18.429 2.184 0 1 0 36.858 0" fill="#bcbec0" opacity=".75"/>
 <path d="m21.034,13.153c7.595.153 14.544,5.17 16.803,12.845 2.791,9.482-2.634,19.43-12.114,22.22s-19.43-2.633-22.221-12.114c-2.339-7.946 1.091-16.221 7.846-20.335l-.013-.404c-.602-.436-2.567-2.983-2.75-2.925-1.97.649-4.093-.422-4.742-2.392s.423-4.092 2.392-4.741 4.094.422 4.742,2.393c.392,1.189.155,2.436-.526,3.378-.099.137 1.889,2.859 2.208,3.506l.716.12c.719-.32 1.466-.595 2.241-.823 1.049-.309 2.103-.517 3.153-.63l.577-.468c-.13-.7-.178-4.077-.339-4.131-1.094-.358-2.01-1.216-2.398-2.394-.65-1.969.422-4.092 2.391-4.74s4.092.423 4.742,2.392-.423,4.093-2.393,4.742c-.188.062-.389,3.345-.621,4.113l.306.388z" fill="#8cc63f" stroke="#006031" stroke-width=".4831"/>
 <path d="m37.953 31.149a17.338 17.338 0 1 0 -34.676 0 17.338 17.338 0 1 0 34.676 0" fill="url(#f)" stroke="#28903a" stroke-width=".4831"/>
 <path d="m10.556 8.896a3.159 3.159 0 1 0 -6.318 0 3.159 3.159 0 1 0 6.318 0" fill="url(#e)" opacity=".5"/>
 <path d="m23.324 5.107a3.159 3.159 0 1 0 -6.318 0 3.159 3.159 0 1 0 6.318 0" fill="url(#d)" opacity=".41"/>
 <path d="m28.308,29.064c.352-1.188.355-2.535-.063-3.471-.878-1.967-3.893-4.654-5.467-2.222-1.654,2.556-1.103,6.716 1.828,8.058 1.858.85 3.174-.58 3.702-2.365z" fill="url(#c)"/>
 <path d="m18.99,37.777c-1.194.271-2.4.396-3.543.854-1.352.543-2.556,1.453-4.028,1.672 .826-.104 1.674-.886 2.481-1.261 5.314-2.468 11.387-3.192 16.458.233-1.505-1.017-3.624-1.545-5.417-1.644-1.854-.099-4.147-.263-5.951.146z" fill="url(#b)" stroke="#1e3319" stroke-width=".4203"/>
 <path d="m20.595,26.335c.526-2.852-1.805-6.983-4.905-5.149-2.552,1.51-3.35,5.035-2.31,7.698 1.597,4.09 5.336,1.099 6.818-1.442 .193-.33.323-.706.397-1.107z" fill="url(#a)"/>
 <path d="m16.75,22.922c-.781-.174-2.456.956-1.17,1.345 .818.248 1.845-.872 1.004-1.512" fill="#fff"/>
 <path d="m24.75,22.755c-.818.026-1.494.921-.508,1.169 .71.179 1.673-.674.841-1.002" fill="#fff"/>
 <path d="m14.25,24.922c-.246.164-.313.344-.201.541 .239-.107.216-.069.387-.203-.049-.474-.302-.078-.353-.171" fill="#fff"/>
 <path d="m23.75,24.755c-.17.262-.178.502-.025.72 .675-.288.53-.35.191-.553" fill="#fff"/>
 <path d="m24.75 19.255c1.311 1.704 2.879 3.459 5.166 3.5" fill="none" stroke="#1e3319" stroke-width=".4203"/>
</svg>
